<svg width="220" height="452" viewBox="0 0 220 452" fill="none" xmlns="http://www.w3.org/2000/svg">
<g clip-path="url(#clip0_63_553)">
<path d="M217.61 232.76C216.15 231.86 217.01 232.39 217.61 232.76C212.94 229.89 209.94 224.53 206.29 220.57C204.54 218.67 202.6 216.84 200 216.26C199.18 216.08 197.25 216.33 196.76 215.87C196.4 215.53 196.13 214.54 195.93 214.09C195.6 213.33 195.29 212.56 195 211.79C192.91 206.25 191.66 200.43 191 194.56C190.6 191.01 190.41 187.47 189.74 183.95C188.59 177.89 186.79 171.97 184.48 166.25C183.57 164 182.74 161.29 181.35 159.29C180.29 157.77 179.31 156.47 178.81 154.61C178.06 151.82 178.4 148.58 178.2 145.7C177.99 142.67 177.67 139.65 177.28 136.64C176.52 130.82 175.53 125.01 174.19 119.29C173.87 117.91 174.17 116.57 174.28 115.16C174.41 113.6 174.48 112.04 174.51 110.48C174.57 107.46 174.44 104.43 174.05 101.44C173.34 95.97 170.07 91.06 167.17 86.49C164.02 81.51 158.92 79.5 153.31 78.43C150.36 77.87 147.36 77.58 144.36 77.47C142.91 77.42 141.45 77.4 140 77.44C139.12 77.46 138.88 77.39 138.18 76.86C137.59 76.42 136.99 75.99 136.39 75.58C133.94 73.89 131.39 72.34 128.85 70.8C128.16 70.39 127.48 69.97 126.79 69.56C126.45 69.36 125.59 69.07 125.41 68.74C125.33 68.58 125.35 68.23 125.34 68.06C125.05 65.41 124.76 62.76 124.47 60.12C124.34 58.97 124.22 57.82 124.09 56.67C124.07 56.52 123.96 56.15 124.02 56.01C124.08 55.85 124.51 55.67 124.68 55.56C125.27 55.15 125.82 54.67 126.28 54.11C127.44 52.74 127.91 50.92 128.48 49.25C129.29 46.89 130.02 44.5 130.66 42.09C133.44 31.69 134.81 18.88 128.81 9.26999C126.12 4.95999 121.87 1.97999 116.95 0.759993C115.07 0.289993 110.12 -0.300007 106.47 0.169993C101.57 0.799993 96.5401 2.53999 93.0701 6.12999C89.3201 10.02 87.5801 15.28 86.8601 20.53C85.4201 31.01 88.0701 41.3 91.5601 51.12C91.9401 52.2 92.3601 53.23 93.1101 54.12C93.4901 54.57 93.9101 54.97 94.3801 55.33C94.5501 55.46 95.3201 55.85 95.3901 56.03C95.5801 56.51 95.2001 57.75 95.1501 58.25C94.8401 61.07 94.5301 63.88 94.2201 66.7C94.1601 67.24 94.2501 68.25 94.0001 68.73C93.8201 69.07 92.9601 69.35 92.6201 69.55C91.9301 69.96 91.2401 70.37 90.5601 70.79C89.2701 71.57 87.9801 72.36 86.7001 73.17C85.4601 73.95 84.2301 74.75 83.0201 75.58C82.4801 75.95 81.9501 76.32 81.4301 76.71C80.6401 77.3 80.4101 77.46 79.4101 77.44C76.3801 77.36 73.3501 77.48 70.3401 77.81C64.9901 78.39 58.7101 79.52 54.6401 83.36C52.7201 85.17 51.4101 87.72 50.0801 89.96C48.6301 92.41 47.2201 94.95 46.2401 97.64C45.2501 100.36 45.0701 103.33 44.9401 106.2C44.8101 109.18 44.8801 112.18 45.1201 115.16C45.2401 116.57 45.5301 117.91 45.2101 119.29C44.8601 120.79 44.5401 122.29 44.2401 123.8C43.6601 126.68 43.1601 129.58 42.7101 132.48C41.8001 138.46 41.1601 144.48 40.9501 150.53C40.8501 153.35 40.6101 155.85 38.9301 158.22C37.9401 159.62 37.2101 160.96 36.4801 162.56C32.3601 171.75 29.6301 181.42 28.6901 191.44C28.1601 197.03 27.3401 202.53 25.7101 207.92C25.3201 209.22 24.8801 210.51 24.4001 211.78C24.1401 212.48 23.8601 213.17 23.5701 213.85C23.3401 214.38 23.0601 215.47 22.6401 215.86C22.1601 216.31 20.2201 216.06 19.4001 216.25C18.0601 216.55 16.8701 217.17 15.8001 218C11.4001 221.43 8.54008 226.54 4.59008 230.45C3.72008 231.31 2.80008 232.05 1.79008 232.75C0.960079 233.32 0.030079 234.03 7.90483e-05 235.14C-0.059921 237.04 1.97008 237.54 3.46008 237.42C5.25008 237.28 7.08008 236.77 8.63008 235.86C9.60008 235.29 10.3701 234.51 11.1801 233.73C11.8101 233.11 12.6601 232 13.5701 231.78C13.1201 233.75 11.9201 235.67 11.0001 237.44C9.81008 239.72 8.57008 241.98 7.28008 244.21C6.26008 245.96 4.05008 248.49 4.98008 250.61C6.66008 254.46 10.3501 249.63 11.5101 248.05C12.5001 246.71 13.3701 245.29 14.3201 243.92C15.1401 242.75 16.0001 241.27 17.1701 240.4C17.1701 241.66 16.6401 242.98 16.2601 244.16C15.7901 245.62 15.2601 247.06 14.7301 248.5C13.8801 250.78 12.1601 253.91 12.7901 256.39C13.1501 257.81 14.6201 258.81 16.0001 258.03C17.4401 257.22 18.1601 255.23 18.7801 253.8C20.2501 250.4 21.3101 246.84 22.7701 243.43C22.9201 246.45 22.3201 249.45 22.2101 252.46C22.1601 253.93 22.0201 256.16 23.1601 257.31C24.2501 258.41 25.8601 257.81 26.5301 256.61C27.5601 254.78 27.3701 252.17 27.5601 250.11C27.7101 248.53 27.8501 246.95 28.0601 245.38C28.1501 244.71 28.1901 242.66 28.9001 242.28C29.6801 243.02 29.0601 245.74 28.9701 246.68C28.8001 248.41 28.6101 250.23 28.8601 251.96C29.0801 253.55 30.4501 255.58 32.1801 254.15C33.2901 253.23 33.5901 251.38 33.7501 250.04C33.9401 248.5 33.9001 246.93 34.0401 245.38C34.2301 243.21 34.5101 241.06 34.7001 238.89C34.7901 237.85 35.1901 237.02 35.5601 236.05C36.2101 234.34 36.8001 232.62 37.3001 230.86C37.8001 229.11 38.2801 227.26 38.2701 225.42C38.2701 224.85 38.2201 224.27 38.0901 223.72C38.0101 223.38 37.6101 222.8 37.6201 222.48C37.6201 221.73 38.3701 220.59 38.6501 219.92C40.4401 215.64 42.4401 211.43 44.5301 207.29C49.4701 197.47 54.9201 187.87 58.2901 177.35C60.0801 171.75 60.8301 165.97 62.3201 160.3C63.6701 155.17 65.4401 150.12 67.3301 145.16C68.0401 147.9 68.7501 150.64 69.4601 153.38C70.0001 155.47 70.9101 157.74 71.1101 159.89C71.3401 162.34 71.0801 164.93 71.0601 167.39C71.0301 171.28 71.0101 175.16 70.9801 179.05C70.9701 181.2 70.6801 183.54 70.9401 185.68C71.0501 186.56 71.5701 187.44 71.8501 188.29C72.4201 189.97 71.4101 192.52 71.0801 194.28C70.3701 198.14 69.7201 202.01 69.1601 205.89C66.9101 221.54 67.8701 237.63 68.9101 253.36C69.9501 269.05 72.4201 284.52 76.5201 299.7C78.2901 306.26 80.2601 312.76 80.4201 319.6C80.5501 325.41 79.2401 331.1 77.8701 336.7C75.9901 344.4 75.0501 352 76.0001 359.92C76.9101 367.53 79.1301 374.91 81.3501 382.22C83.4601 389.18 85.6001 396.13 87.7301 403.08C89.3901 408.49 91.1101 413.9 92.5101 419.39C92.9601 421.17 93.7601 423.46 93.4201 425.29C92.8401 428.4 90.7801 431.66 89.1601 434.33C87.5601 436.97 85.7301 439.69 83.1301 441.43C82.2901 441.99 81.3601 442.51 80.9301 443.48C80.2401 445.06 81.5101 446.34 82.8601 446.96C84.1401 447.55 85.5701 447.62 86.9301 447.95C88.9301 448.43 90.9801 448.81 93.0301 448.97C93.8601 449.03 94.7101 449.07 95.5401 449.02C96.3701 448.97 97.2001 448.57 97.9901 448.52C98.1301 448.52 98.1901 448.49 98.2201 448.47C98.2401 448.52 98.3101 448.61 98.5101 448.77C98.8401 449.04 99.0301 449.44 99.4001 449.71C100.15 450.26 101.1 450.52 101.99 450.73C105.36 451.48 108.39 450.52 109.69 447.11C110.55 449.39 112.37 450.96 114.87 451.02C116.9 451.07 120.15 450.51 120.95 448.32C123.85 449.81 127.88 448.91 130.91 448.29C132.42 447.98 134.02 447.76 135.49 447.34C136.76 446.98 138.3 446.19 138.58 444.77C139.02 442.51 135.62 441.17 134.3 439.85C131.85 437.4 130 434.23 128.42 431.17C127.18 428.78 125.62 426.17 126 423.4C126.33 420.98 127.03 418.59 127.69 416.25C128.98 411.61 130.43 407.01 131.84 402.4C133.96 395.5 136.08 388.59 138.18 381.68C140.37 374.45 142.54 367.14 143.4 359.61C144.28 351.96 143.42 344.57 141.6 337.12C140.2 331.37 138.81 325.54 138.95 319.58C139.1 313.07 140.9 306.88 142.6 300.64C144.59 293.31 146.33 285.95 147.57 278.46C148.81 270.98 149.59 263.45 150.26 255.9C150.94 248.14 151.23 240.31 151.38 232.52C151.52 224.97 151.7 217.46 150.64 209.96C150.12 206.26 149.46 202.58 148.74 198.92C148.36 196.99 147.97 195.07 147.55 193.14C147.36 192.27 147.17 191.39 146.97 190.52C146.71 189.35 146.71 188.78 146.91 187.61C147.4 184.8 147.1 181.76 147.08 178.91C147.04 173.12 147 167.33 146.96 161.54C146.95 159.69 147.36 158.39 147.9 156.59L151 146.26L151.65 144.1C153.23 148.15 154.67 152.26 155.95 156.41C157.52 161.49 158.26 166.7 159.54 171.84C162.21 182.63 167.21 192.68 172.38 202.47C174.81 207.07 177.11 211.74 179.25 216.48C180.03 218.21 181.21 220.18 181.61 222.04C181.77 222.8 181.31 223.47 181.19 224.29C181.04 225.36 181.14 226.44 181.31 227.5C181.87 230.93 183.14 234.2 184.37 237.44C184.86 238.74 184.82 240.24 184.97 241.62C185.19 243.68 185.46 245.76 185.53 247.83C185.58 249.47 185.64 251.15 186.28 252.69C186.98 254.41 189.11 255.58 190.18 253.35C190.99 251.65 190.69 249.23 190.51 247.4C190.42 246.47 190.31 245.53 190.26 244.6C190.23 244.07 190 242.75 190.42 242.29C191.16 242.62 191.24 244.71 191.33 245.36C191.56 246.92 191.7 248.49 191.84 250.06C192.03 252.13 191.84 254.74 192.87 256.59C193.51 257.74 194.99 258.35 196.1 257.41C197.35 256.36 197.24 254.12 197.2 252.67C197.12 249.58 196.48 246.51 196.63 243.41C198.09 246.81 199.14 250.38 200.62 253.78C201.24 255.22 202 257.37 203.53 258.09C204.97 258.77 206.35 257.63 206.64 256.22C207.15 253.68 205.47 250.61 204.6 248.28C203.71 245.9 202.22 242.97 202.23 240.38C204.33 241.92 205.73 244.87 207.17 246.99C208.32 248.7 211.1 253.43 213.65 251.55C216 249.82 213.56 246.62 212.5 244.85C211.26 242.75 210.08 240.61 208.94 238.46C207.84 236.38 206.35 234.09 205.83 231.77C207.48 232.17 208.78 234.5 210.14 235.45C211.54 236.44 213.25 237.01 214.93 237.28C216.16 237.48 217.6 237.67 218.62 236.79C220.21 235.41 219.05 233.63 217.61 232.74V232.76ZM112.11 333.16C111.88 337.05 111.24 340.92 110.92 344.8C110.46 350.42 110.51 356.05 110.29 361.68C110.15 365.17 110.15 368.67 110.29 372.16C110.45 376.09 110.94 379.99 111.13 383.91C111.55 392.82 110.58 401.76 109.73 410.62C108.94 402.54 108.08 394.41 108.23 386.28C108.3 382.28 108.81 378.31 109.03 374.32C109.26 370.2 109.31 366.06 109.14 361.94C108.87 355.33 108.98 348.71 108.34 342.13C108.12 339.82 107.8 337.52 107.53 335.21C107.27 333 106.97 330.54 107.46 328.34C107.94 326.18 108.85 324.2 109.14 321.96C109.44 319.66 109.38 317.31 109.14 315.01C108.6 309.75 109.2 304.68 109.73 299.44C110.16 303.44 110.94 307.6 110.67 311.64C110.42 315.44 109.52 318.98 110.2 322.82C110.47 324.36 110.94 325.85 111.55 327.28C112.33 329.1 112.24 331.21 112.12 333.17L112.11 333.16Z" fill="#F8F1F1"/>
<path d="M93.7001 51.91C93.7001 51.91 93.7001 51.89 93.6901 51.89C93.6901 51.89 93.6901 51.9 93.6901 51.91H93.7001ZM217.61 232.76C218.02 233.01 218.3 233.18 217.61 232.76V232.76ZM17.3801 230.31C22.5701 230.94 27.3701 226.44 28.3401 221.6C28.0601 221.96 27.8001 222.33 27.5401 222.71C25.3701 226.33 21.2801 228.94 17.3801 230.31ZM197.92 228.37C197.67 228.21 197.69 228.23 197.79 228.28C194.98 226.5 193.1 224.19 191.09 221.59C192.06 226.41 196.86 230.97 202.05 230.3C200.66 229.81 199.32 229.17 198.05 228.43C198.16 228.5 198.19 228.52 197.92 228.36V228.37ZM217.14 236.06C217.14 236.06 217.14 236.06 217.15 236.06C217.15 236.06 217.14 236.06 217.13 236.06H217.14ZM198.05 228.44C197.97 228.39 197.87 228.33 197.79 228.29C197.83 228.32 197.88 228.35 197.92 228.38C197.96 228.4 198 228.42 198.05 228.45V228.44ZM217.63 232.76C216.17 231.86 217.03 232.39 217.63 232.76C212.96 229.89 209.96 224.53 206.31 220.57C204.56 218.67 202.62 216.84 200.02 216.26C199.2 216.08 197.27 216.33 196.78 215.87C196.42 215.53 196.15 214.54 195.95 214.09C195.62 213.33 195.31 212.56 195.02 211.79C192.93 206.25 191.68 200.43 191.02 194.56C190.62 191.01 190.43 187.47 189.76 183.95C188.61 177.89 186.81 171.97 184.5 166.25C183.59 164 182.76 161.29 181.37 159.29C180.31 157.77 179.33 156.47 178.83 154.61C178.08 151.82 178.42 148.58 178.22 145.7C178.01 142.67 177.69 139.65 177.3 136.64C176.54 130.82 175.55 125.01 174.21 119.29C173.89 117.91 174.19 116.57 174.3 115.16C174.43 113.6 174.5 112.04 174.53 110.48C174.59 107.46 174.46 104.43 174.07 101.44C173.36 95.97 170.09 91.06 167.19 86.49C164.04 81.51 158.94 79.5 153.33 78.43C150.38 77.87 147.38 77.58 144.38 77.47C142.93 77.42 141.47 77.4 140.02 77.44C139.14 77.46 138.9 77.39 138.2 76.86C137.61 76.42 137.01 75.99 136.41 75.58C133.96 73.89 131.41 72.34 128.87 70.8C128.18 70.39 127.5 69.97 126.81 69.56C126.47 69.36 125.61 69.07 125.43 68.74C125.35 68.58 125.37 68.23 125.36 68.06C125.07 65.41 124.78 62.76 124.49 60.12C124.36 58.97 124.24 57.82 124.11 56.67C124.09 56.52 123.98 56.15 124.04 56.01C124.1 55.85 124.53 55.67 124.7 55.56C125.29 55.15 125.84 54.67 126.3 54.11C127.46 52.74 127.93 50.92 128.5 49.25C129.31 46.89 130.04 44.5 130.68 42.09C133.46 31.69 134.83 18.88 128.83 9.26999C126.14 4.95999 121.89 1.97999 116.97 0.759993C115.09 0.289993 110.14 -0.300007 106.49 0.169993C101.59 0.799993 96.5601 2.53999 93.0901 6.12999C89.3401 10.02 87.6001 15.28 86.8801 20.53C85.4401 31.01 88.0901 41.3 91.5801 51.12C91.9601 52.2 92.3801 53.23 93.1301 54.12C93.5101 54.57 93.9301 54.97 94.4001 55.33C94.5701 55.46 95.3401 55.85 95.4101 56.03C95.6001 56.51 95.2201 57.75 95.1701 58.25C94.8601 61.07 94.5501 63.88 94.2401 66.7C94.1801 67.24 94.2701 68.25 94.0201 68.73C93.8401 69.07 92.9801 69.35 92.6401 69.55C91.9501 69.96 91.2601 70.37 90.5801 70.79C89.2901 71.57 88.0001 72.36 86.7201 73.17C85.4801 73.95 84.2501 74.75 83.0401 75.58C82.5001 75.95 81.9701 76.32 81.4501 76.71C80.6601 77.3 80.4301 77.46 79.4301 77.44C76.4101 77.36 73.3701 77.48 70.3601 77.81C65.0101 78.39 58.7301 79.52 54.6601 83.36C52.7401 85.17 51.4301 87.72 50.1001 89.96C48.6501 92.41 47.2401 94.95 46.2601 97.64C45.2701 100.36 45.0901 103.33 44.9601 106.2C44.8301 109.18 44.9001 112.18 45.1401 115.16C45.2601 116.57 45.5501 117.91 45.2301 119.29C44.8801 120.79 44.5601 122.29 44.2601 123.8C43.6801 126.68 43.1801 129.58 42.7301 132.48C41.8201 138.46 41.1801 144.48 40.9701 150.53C40.8701 153.35 40.6301 155.85 38.9501 158.22C37.9601 159.62 37.2301 160.96 36.5001 162.56C32.3801 171.75 29.6501 181.42 28.7101 191.44C28.1801 197.03 27.3601 202.53 25.7301 207.92C25.3401 209.22 24.9001 210.51 24.4201 211.78C24.1601 212.48 23.8801 213.17 23.5901 213.85C23.3601 214.38 23.0801 215.47 22.6601 215.86C22.1801 216.31 20.2401 216.06 19.4201 216.25C18.0801 216.55 16.8901 217.17 15.8201 218C11.4201 221.43 8.5601 226.54 4.6101 230.45C3.7401 231.31 2.8201 232.05 1.8101 232.75C0.980099 233.32 0.0500986 234.03 0.0200986 235.14C-0.0399014 237.04 1.9901 237.54 3.4801 237.42C5.2701 237.28 7.1001 236.77 8.6501 235.86C9.6301 235.29 10.3901 234.51 11.2001 233.73C11.8301 233.11 12.6801 232 13.5901 231.78C13.1401 233.75 11.9401 235.67 11.0201 237.44C9.8301 239.72 8.5901 241.98 7.3001 244.21C6.2801 245.96 4.0701 248.49 5.0001 250.61C6.6801 254.46 10.3701 249.63 11.5301 248.05C12.5201 246.71 13.3901 245.29 14.3401 243.92C15.1601 242.75 16.0201 241.27 17.1901 240.4C17.1901 241.66 16.6601 242.98 16.2801 244.16C15.8101 245.62 15.2801 247.06 14.7501 248.5C13.9001 250.78 12.1801 253.91 12.8101 256.39C13.1701 257.81 14.6401 258.81 16.0201 258.03C17.4601 257.22 18.1801 255.23 18.8001 253.8C20.2701 250.4 21.3301 246.84 22.7901 243.43C22.9401 246.45 22.3401 249.45 22.2301 252.46C22.1801 253.93 22.0401 256.16 23.1801 257.31C24.2701 258.41 25.8801 257.81 26.5501 256.61C27.5801 254.78 27.3901 252.17 27.5801 250.11C27.7301 248.53 27.8701 246.95 28.0801 245.38C28.1701 244.71 28.2101 242.66 28.9201 242.28C29.7001 243.02 29.0801 245.74 28.9901 246.68C28.8201 248.41 28.6301 250.23 28.8801 251.96C29.1001 253.55 30.4701 255.58 32.2001 254.15C33.3101 253.23 33.6101 251.38 33.7701 250.04C33.9601 248.5 33.9201 246.93 34.0601 245.38C34.2501 243.21 34.5301 241.06 34.7201 238.89C34.8101 237.85 35.2101 237.02 35.5801 236.05C36.2301 234.34 36.8201 232.62 37.3201 230.86C37.8201 229.11 38.3001 227.26 38.2901 225.42C38.2901 224.85 38.2401 224.27 38.1101 223.72C38.0301 223.38 37.6301 222.8 37.6401 222.48C37.6401 221.73 38.3901 220.59 38.6701 219.92C40.4601 215.64 42.4601 211.43 44.5501 207.29C49.4901 197.47 54.9401 187.87 58.3101 177.35C60.1001 171.75 60.8501 165.97 62.3401 160.3C63.6901 155.17 65.4601 150.12 67.3501 145.16C68.0601 147.9 68.7701 150.64 69.4801 153.38C70.0201 155.47 70.9301 157.74 71.1301 159.89C71.3601 162.34 71.1001 164.93 71.0801 167.39C71.0501 171.28 71.0301 175.16 71.0001 179.05C70.9901 181.2 70.7001 183.54 70.9601 185.68C71.0701 186.56 71.5901 187.44 71.8701 188.29C72.4401 189.97 71.4301 192.52 71.1001 194.28C70.3901 198.14 69.7401 202.01 69.1801 205.89C66.9301 221.54 67.8901 237.63 68.9301 253.36C69.9701 269.05 72.4401 284.52 76.5401 299.7C78.3101 306.26 80.2801 312.76 80.4401 319.6C80.5701 325.41 79.2601 331.1 77.8901 336.7C76.0101 344.4 75.0701 352 76.0201 359.92C76.9301 367.53 79.1501 374.91 81.3701 382.22C83.4801 389.18 85.6101 396.13 87.7501 403.08C89.4101 408.49 91.1301 413.9 92.5301 419.39C92.9801 421.17 93.7801 423.46 93.4401 425.29C92.8601 428.4 90.8001 431.66 89.1801 434.33C87.5801 436.97 85.7501 439.69 83.1501 441.43C82.3101 441.99 81.3801 442.51 80.9501 443.48C80.2601 445.06 81.5301 446.34 82.8801 446.96C84.1601 447.55 85.5901 447.62 86.9501 447.95C88.9501 448.43 91.0001 448.81 93.0501 448.97C93.8801 449.03 94.7301 449.07 95.5601 449.02C96.3901 448.97 97.2201 448.57 98.0101 448.52C98.1501 448.52 98.2101 448.49 98.2401 448.47C98.2601 448.52 98.3301 448.61 98.5301 448.77C98.8601 449.04 99.0501 449.44 99.4201 449.71C100.17 450.26 101.12 450.52 102.01 450.73C105.38 451.48 108.41 450.52 109.71 447.11C110.57 449.39 112.39 450.96 114.89 451.02C116.92 451.07 120.17 450.51 120.97 448.32C123.87 449.81 127.9 448.91 130.93 448.29C132.44 447.98 134.04 447.76 135.51 447.34C136.78 446.98 138.32 446.19 138.6 444.77C139.04 442.51 135.64 441.17 134.32 439.85C131.87 437.4 130.02 434.23 128.44 431.17C127.2 428.78 125.64 426.17 126.02 423.4C126.35 420.98 127.05 418.59 127.71 416.25C129 411.61 130.45 407.01 131.86 402.4C133.98 395.5 136.1 388.59 138.2 381.68C140.39 374.45 142.56 367.14 143.42 359.61C144.3 351.96 143.44 344.57 141.62 337.12C140.22 331.37 138.83 325.54 138.97 319.58C139.12 313.07 140.92 306.88 142.62 300.64C144.61 293.31 146.35 285.95 147.59 278.46C148.83 270.98 149.61 263.45 150.28 255.9C150.96 248.14 151.25 240.31 151.4 232.52C151.54 224.97 151.72 217.46 150.66 209.96C150.14 206.26 149.48 202.58 148.76 198.92C148.38 196.99 147.99 195.07 147.57 193.14C147.38 192.27 147.19 191.39 146.99 190.52C146.73 189.35 146.73 188.78 146.93 187.61C147.42 184.8 147.12 181.76 147.1 178.91C147.06 173.12 147.02 167.33 146.98 161.54C146.97 159.69 147.38 158.39 147.92 156.59L151.02 146.26L151.67 144.1C153.25 148.15 154.69 152.26 155.97 156.41C157.54 161.49 158.28 166.7 159.56 171.84C162.23 182.63 167.23 192.68 172.4 202.47C174.83 207.07 177.13 211.74 179.27 216.48C180.05 218.21 181.23 220.18 181.63 222.04C181.79 222.8 181.33 223.47 181.21 224.29C181.06 225.36 181.16 226.44 181.33 227.5C181.89 230.93 183.16 234.2 184.39 237.44C184.88 238.74 184.84 240.24 184.99 241.62C185.21 243.68 185.48 245.76 185.55 247.83C185.6 249.47 185.66 251.15 186.3 252.69C187 254.41 189.13 255.58 190.2 253.35C191.01 251.65 190.71 249.23 190.53 247.4C190.44 246.47 190.33 245.53 190.28 244.6C190.25 244.07 190.02 242.75 190.44 242.29C191.18 242.62 191.26 244.71 191.35 245.36C191.58 246.92 191.72 248.49 191.86 250.06C192.05 252.13 191.86 254.74 192.89 256.59C193.53 257.74 195.01 258.35 196.12 257.41C197.37 256.36 197.26 254.12 197.22 252.67C197.14 249.58 196.5 246.51 196.65 243.41C198.11 246.81 199.16 250.38 200.64 253.78C201.26 255.22 202.02 257.37 203.55 258.09C204.99 258.77 206.37 257.63 206.66 256.22C207.17 253.68 205.49 250.61 204.62 248.28C203.73 245.9 202.24 242.97 202.25 240.38C204.35 241.92 205.75 244.87 207.19 246.99C208.34 248.7 211.12 253.43 213.67 251.55C216.02 249.82 213.58 246.62 212.52 244.85C211.28 242.75 210.1 240.61 208.96 238.46C207.86 236.38 206.37 234.09 205.85 231.77C207.5 232.17 208.8 234.5 210.16 235.45C211.56 236.44 213.27 237.01 214.95 237.28C216.18 237.48 217.62 237.67 218.64 236.79C220.23 235.41 219.07 233.63 217.63 232.74V232.76ZM93.7001 51.92C93.8101 52.14 94.0401 52.62 93.7001 51.92C93.6301 51.78 93.6501 51.82 93.7001 51.9C92.9501 50.33 92.4801 48.49 91.9601 46.83C91.0001 43.75 90.1501 40.63 89.4901 37.48C88.2501 31.56 87.9301 25.6 88.9801 19.62C89.8801 14.49 91.9401 9.38999 96.1401 6.07999C99.9801 3.05999 104.89 2.10999 109.67 1.98999C114.16 1.86999 119.03 2.97999 122.71 5.61999C127.14 8.79999 129.39 13.9 130.37 19.12C131.49 25.07 131.26 31.05 130.07 36.96C129.09 41.84 127.85 46.94 125.91 51.55C124.75 54.31 121.48 55.79 119.04 57.24C116.44 58.78 113.24 60.85 110.15 61.08C107.07 61.3 103.64 59.1 101.08 57.62C98.6201 56.2 95.0301 54.61 93.7201 51.94L93.7001 51.92ZM109.71 410.64C108.92 402.56 108.06 394.43 108.21 386.3C108.28 382.3 108.79 378.33 109.01 374.34C109.24 370.22 109.29 366.08 109.12 361.96C108.85 355.35 108.96 348.73 108.32 342.15C108.1 339.84 107.78 337.54 107.51 335.23C107.25 333.02 106.95 330.56 107.44 328.36C107.92 326.2 108.83 324.22 109.12 321.98C109.42 319.68 109.36 317.33 109.12 315.03C108.58 309.77 109.18 304.7 109.71 299.46C110.14 303.46 110.92 307.62 110.65 311.66C110.4 315.46 109.5 319 110.18 322.84C110.45 324.38 110.92 325.87 111.53 327.3C112.31 329.12 112.22 331.23 112.1 333.19C111.87 337.08 111.23 340.95 110.91 344.83C110.45 350.45 110.5 356.08 110.28 361.71C110.14 365.2 110.14 368.7 110.28 372.19C110.44 376.12 110.93 380.02 111.12 383.94C111.54 392.85 110.57 401.79 109.72 410.65L109.71 410.64ZM217.13 236.07C217.19 236.06 217.22 236.06 217.12 236.07C216.42 236.19 216.92 236.1 217.12 236.07C215.83 236.3 214.25 235.83 213.05 235.41C210.91 234.65 209.64 233.1 207.98 231.62C207.24 230.96 204.77 229.34 204.43 231.32C204.31 232.01 204.79 232.95 205.03 233.57C206.74 237.91 209.2 242.04 211.59 246.04C212.19 247.04 213.12 248.17 213.2 249.36C213.39 252.12 210.62 249.37 210.04 248.64C207.77 245.78 206.15 242.16 203.43 239.68C202.27 238.63 200.86 238.71 200.88 240.5C200.89 241.66 201.29 242.85 201.63 243.94C202.27 246.01 203.04 248.04 203.8 250.07C204.34 251.51 204.97 252.99 205.25 254.5C205.48 255.77 204.92 257.96 203.51 256.31C202.42 255.04 201.83 253.17 201.18 251.64C200.32 249.6 199.66 247.47 198.88 245.4C198.55 244.51 197.84 241.25 196.52 241.19C194.86 241.12 195.26 244.54 195.29 245.42C195.37 247.49 195.64 249.55 195.78 251.62C195.85 252.62 196.29 255.65 195.25 256.39C193.63 257.55 193.45 252.64 193.4 252.03C193.29 250.76 193.17 249.49 193.04 248.22C192.93 247.15 192.51 239.29 189.7 241.19C188.33 242.11 188.89 244.99 189.01 246.31C189.15 247.87 189.32 249.4 189.25 250.96C189.21 251.96 188.63 254.46 187.66 252.45C186.82 250.71 186.98 248.68 186.85 246.8C186.69 244.51 186.42 242.23 186.18 239.95C186.09 239.1 186.11 238.23 185.85 237.43C184.94 234.61 183.73 231.93 183.03 229.03C182.46 226.66 181.76 223.4 184.31 222.07C184.73 221.85 185.36 221.57 184.93 220.97C184.4 220.23 183.06 221.1 182.63 221.46C177.28 206.03 168.13 192.26 163.02 176.74C161.68 172.68 160.84 168.57 159.95 164.4C159.06 160.23 157.73 156.16 156.24 152.16C155.03 148.91 153.58 145.77 152.27 142.56C151.96 141.81 152.14 141.27 152.27 140.45C152.33 140.08 152.31 139.56 152.46 139.22C152.7 138.67 153.48 138.17 153.87 137.67C156.65 134.05 156.74 128.56 156.45 124.21C156.29 121.86 155.87 119.5 155.22 117.24C154.89 116.08 154.27 114.94 154.36 113.74C154.45 112.48 154.53 111.22 154.59 109.96C154.37 111.05 154.16 112.14 153.96 113.23C153.76 114.33 153.81 114.77 154.06 115.87C154.55 118.04 154.85 120.26 154.97 122.48C155.19 126.59 155.13 131.8 152.99 135.45C150.76 139.26 146.12 140.23 142.09 140.92C139.77 141.32 137.42 141.59 135.07 141.79C134.01 141.88 132.96 141.96 131.9 142.03C130.76 142.1 129.32 142.39 128.2 142.21C127.12 142.04 125.87 140.92 124.91 140.33C123.82 139.66 122.74 138.99 121.64 138.34C119.3 136.94 116.97 135.52 114.6 134.19C117.36 136.37 120.2 138.46 123.04 140.53C124.34 141.48 125.83 142.99 127.32 143.61C128.37 144.05 130 143.78 131.15 143.77C134.65 143.74 138.17 143.52 141.64 143.02C144.75 142.57 147.96 141.98 150.72 140.4C150.54 141.45 150.36 142.5 150.18 143.56C150.17 143.52 150.16 143.49 150.15 143.45C148.57 148.34 146.99 153.23 145.41 158.12C145.3 158.45 145.23 158.83 145.08 159.14C144.99 159.32 144.73 160.97 144.74 161.52C144.77 164.69 144.79 167.85 144.82 171.02C144.86 175.15 145.04 179.27 145.02 183.4C145.02 184.02 145.02 184.65 145.02 185.27C145 186.47 144.57 187.58 144.49 188.74C144.41 189.89 144.94 191.25 145.18 192.4C145.53 194.08 145.87 195.75 146.2 197.43C147.47 203.96 148.73 210.62 149.04 217.28C149.35 223.94 149 230.72 148.74 237.38C148.48 244.03 148.17 250.68 147.57 257.31C146.35 270.81 144.3 284.1 140.78 297.2C139.08 303.51 137.05 309.8 136.46 316.34C136.14 319.96 136.31 323.69 136.84 327.28C137.8 333.84 140.04 340.13 140.86 346.71C141.67 353.23 141.09 359.72 139.8 366.14C138 375.1 135.05 383.85 132.44 392.6C130.48 399.16 128.48 405.72 126.6 412.3C125.82 415.02 125.04 417.76 124.45 420.53C124.1 422.17 123.62 423.96 123.92 425.63C124.29 427.67 125.44 429.71 126.38 431.52C127.76 434.18 129.34 436.76 131.19 439.11C132.01 440.15 132.9 441.13 133.92 441.98C134.66 442.6 135.53 443.02 136.28 443.62C138.2 445.16 134.73 445.78 133.65 445.97C130.41 446.56 127.33 447.71 123.97 447.53C123.37 447.5 122.72 447.44 122.15 447.23C121.33 446.92 121.28 446.73 121.24 445.95C121.21 445.4 121.13 444.87 120.9 444.37C120.77 444.09 120.25 443.1 119.99 442.94C118.7 442.18 119.66 444.65 119.75 444.98C120.03 445.95 120.44 447.4 119.86 448.27C119.22 449.23 117.62 449.49 116.58 449.65C115.15 449.87 113.62 449.84 112.48 448.85C109.85 446.56 110.49 442.02 110.48 438.87C110.46 434.27 110.46 429.67 110.51 425.07C110.62 413.98 112.57 403.01 113.01 391.93C113.27 385.28 112.5 378.75 112.27 372.11C112.11 367.48 112.29 362.86 112.49 358.24C112.75 352.39 112.76 346.59 113.37 340.76C113.71 337.48 114.24 334.17 114.15 330.86C114.12 329.78 114.11 328.56 113.79 327.52C113.37 326.13 112.63 324.87 112.28 323.43C111.51 320.2 111.83 316.93 112.31 313.68C112.79 310.46 112.41 307.23 112.04 304.02C111.31 297.66 110.75 291.37 110.61 284.98C110.41 275.99 110.63 266.99 110.52 258C110.48 254.7 110.44 251.4 110.39 248.1L110.34 243.79C110.34 243.22 110.06 241.94 110.31 241.42C110.49 241.04 111.12 241.22 111.59 241.16C112.99 240.99 114.37 240.55 115.55 239.76C117.74 238.28 118.62 235.78 118.16 233.23C117.74 234.97 117.07 236.64 115.58 237.74C113.99 238.9 111.95 239.23 110.02 239.23C108.07 239.23 106.01 238.91 104.4 237.74C102.91 236.65 102.24 234.97 101.82 233.23C101.47 235.21 101.86 237.2 103.23 238.72C104.02 239.59 105.04 240.22 106.13 240.63C106.71 240.85 107.32 241.01 107.94 241.1C108.18 241.14 109.04 241.08 109.16 241.23C109.3 241.4 109.15 242.25 109.14 242.46C109.13 243.41 109.12 244.35 109.1 245.3C109.04 250.34 108.97 255.39 108.91 260.43C108.81 268.51 109.02 276.59 108.86 284.67C108.75 289.91 108.45 295.1 107.89 300.31C107.6 302.98 107.26 305.65 107.09 308.32C106.91 310.99 107.22 313.53 107.4 316.18C107.58 318.83 107.48 321.5 106.83 324.08C106.33 326.08 105.5 327.73 105.36 329.8C104.99 335.25 106.33 340.84 106.65 346.29C106.9 350.52 106.82 354.76 107.02 358.99C107.19 362.75 107.34 366.5 107.26 370.26C107.15 375.7 106.42 381.11 106.37 386.55C106.33 392.11 106.73 397.66 107.28 403.19C107.83 408.67 108.64 414.15 108.99 419.64C109.14 421.98 109.05 424.35 109.03 426.69C109.01 430.63 109.01 434.57 109.03 438.52C109.03 440.21 109.11 441.9 109.05 443.59C108.99 445.6 108.38 448.2 106.48 449.27C104.83 450.2 101.6 449.91 100.14 448.65C99.3801 447.99 99.3901 447.14 99.6101 446.21C99.7401 445.66 100.24 443.43 100.84 443.49C100.65 442.69 99.5501 442.58 99.1001 443.19C98.3901 444.16 98.7301 446.01 98.0101 446.86C97.3701 447.62 95.5601 447.54 94.7001 447.53C93.2101 447.5 91.7301 447.3 90.2701 447.02C88.9301 446.77 87.6201 446.43 86.3001 446.1C85.6601 445.94 85.0101 445.94 84.3801 445.74C83.8901 445.59 82.5801 445.15 82.5301 444.48C82.4701 443.79 83.7101 443.27 84.2101 442.94C88.1601 440.36 90.8201 435.82 92.9601 431.73C93.9201 429.9 95.0401 427.89 95.4901 425.86C95.7801 424.54 95.5401 423.14 95.2901 421.84C93.9601 414.77 91.5901 407.88 89.5401 400.99C88.2101 396.53 86.8701 392.08 85.5501 387.61C82.4101 376.97 78.6001 366.09 78.2401 354.9C78.0501 349.11 78.9601 343.5 80.3401 337.89C81.6401 332.63 82.9101 327.37 83.0901 321.93C83.4001 312.86 80.5801 304.34 78.2801 295.67C75.3001 284.4 73.3201 272.88 72.2401 261.28C71.1601 249.75 70.6201 238.2 70.4501 226.63C70.3601 220.82 70.4101 215.13 71.1001 209.35C71.8001 203.49 72.7601 197.65 73.8201 191.85C73.9901 190.94 74.4301 189.78 74.3701 188.86C74.2901 187.72 73.5801 186.32 73.1301 185.29C73.1801 185.44 73.2701 185.58 73.3401 185.73C73.3601 178.89 73.3701 172.05 73.3901 165.21C73.3901 163.72 73.3901 162.24 73.4001 160.75C73.4001 160.46 73.2001 159.55 73.1101 159.35C72.6201 158.19 72.3801 156.83 72.0301 155.62C71.4201 153.51 70.8101 151.39 70.2001 149.28C69.6801 147.5 69.1001 145.72 68.6501 143.92C68.3401 142.67 68.3101 141.36 68.1701 140.07C70.8801 141.81 74.1301 142.45 77.2601 142.94C80.8101 143.49 84.4201 143.72 88.0101 143.77C89.1701 143.78 90.9401 144.07 92.0201 143.67C92.6301 143.44 93.2901 142.76 93.8201 142.39C94.5301 141.88 95.2501 141.36 95.9601 140.84C98.9401 138.66 101.93 136.48 104.83 134.19C100.82 136.44 96.9001 138.85 93.0001 141.28C92.5801 141.54 91.9701 142.1 91.4901 142.23C91.0501 142.35 90.3601 142.19 89.9001 142.17C88.6601 142.11 87.4301 142.04 86.1901 141.96C83.8201 141.79 81.4501 141.55 79.1001 141.21C75.0901 140.64 70.0601 139.98 67.2801 136.7C64.6001 133.53 64.4001 128.49 64.3901 124.54C64.3901 121.98 64.6601 119.41 65.1501 116.9C65.3401 115.91 65.7001 115.01 65.5901 114.01C65.4401 112.66 65.1001 111.31 64.8301 109.98C64.8801 110.99 64.9401 111.99 65.0101 113C65.1001 114.31 64.8801 115.08 64.4801 116.33C63.8501 118.3 63.4101 120.33 63.1501 122.38C62.6301 126.44 62.6001 131.24 64.1201 135.1C64.4501 135.94 64.8701 136.77 65.4001 137.5C65.7601 137.99 66.3601 138.4 66.5401 138.96C66.8101 139.81 66.7201 140.95 66.8001 141.84C66.9101 143.06 66.7001 143.55 66.1901 144.73C65.5501 146.21 64.9301 147.7 64.3301 149.19C62.7601 153.09 61.3701 157.07 60.2601 161.13C59.1501 165.17 58.5701 169.33 57.4301 173.37C55.0401 181.81 51.3001 189.85 47.3801 197.67C43.4801 205.44 39.6401 213.25 36.7801 221.49C36.3501 221.13 34.4801 220.03 34.3601 221.33C34.3001 222.01 34.9401 221.99 35.3601 222.19C36.7901 222.89 36.9701 224.62 36.8901 226.05C36.6601 229.73 35.1601 233.45 33.8101 236.85C33.4801 237.68 33.4101 238.21 33.3201 239.12C33.0701 241.69 32.7401 244.26 32.5601 246.84C32.4801 247.96 32.5201 249.09 32.3601 250.21C32.2501 250.94 32.0701 252.68 31.3501 253.13C29.9601 254.01 30.1401 250.03 30.1501 249.38C30.1901 247.22 30.7901 245 30.4601 242.84C30.2401 241.39 28.8301 240.23 27.7401 241.68C26.6701 243.11 26.6401 245.5 26.4601 247.19C26.2901 248.81 26.1401 250.44 26.0001 252.06C25.9601 252.56 25.4001 258.27 23.9601 256.13C23.5101 255.47 23.5801 254.32 23.5701 253.57C23.5501 252.26 23.6901 250.96 23.8101 249.66C24.0001 247.59 24.2601 245.46 24.1201 243.39C24.0701 242.71 24.0301 241.63 23.2801 241.31C21.7201 240.64 20.8201 244.65 20.5201 245.44C19.6701 247.73 18.9301 250.06 17.9501 252.3C17.5201 253.28 16.3701 257.11 14.9501 257.01C12.3401 256.82 16.8501 246.71 17.2001 245.69C17.6001 244.51 19.6501 240.05 17.9101 239.07C17.0201 238.57 16.0801 239.55 15.5301 240.13C13.9201 241.85 12.6601 243.94 11.3601 245.89C10.7901 246.74 10.1901 247.57 9.5701 248.38C9.0301 249.08 8.1801 250.45 7.2201 250.62C4.8401 251.05 7.3101 246.88 7.6701 246.28C8.7801 244.43 9.8401 242.54 10.8801 240.65C12.2801 238.08 13.8601 235.41 14.7201 232.6C15.0701 231.46 14.9901 230.16 13.3201 230.47C11.1201 230.88 9.7601 233.7 7.8601 234.76C6.4301 235.56 4.2501 236.34 2.5701 236.13C-0.589902 235.73 3.7901 233.08 4.5201 232.45C8.8801 228.62 11.7301 223.35 16.1201 219.57C18.0501 217.91 20.3001 217.21 22.8301 217.56C23.6501 217.68 24.4601 217.89 25.2501 218.17C25.6301 218.31 26.1601 218.69 26.5701 218.71C27.7201 218.75 27.4501 217.71 26.7501 217.31C25.8501 216.79 24.7201 216.51 23.7101 216.31C26.8501 210.22 28.6601 203.37 29.6801 196.63C30.3701 192.08 30.6101 187.53 31.5701 183.02C33.0001 176.28 35.3301 169.7 38.2101 163.44C38.7801 162.21 39.2901 160.92 40.1501 159.88C41.1901 158.63 41.9401 157.18 42.4701 155.65C42.8901 154.44 43.2201 153.5 43.2301 152.32C43.2401 150.55 43.3001 148.78 43.3901 147.02C43.7501 139.95 44.7601 132.9 45.9901 125.93C46.3001 124.19 46.6301 122.45 47.0101 120.73C47.3001 119.4 47.5201 118.55 47.3701 117.24C46.9601 113.8 46.8101 110.32 46.9301 106.86C47.0401 103.58 47.2601 100.32 48.5301 97.26C49.8401 94.12 51.6101 91.17 53.4101 88.29C55.1301 85.54 56.9301 83.6 59.9401 82.24C62.9501 80.88 66.2501 80.19 69.5001 79.74C77.2101 78.69 85.1701 79.23 92.9301 79.33C89.4901 78.86 86.0401 78.39 82.5901 77.93C84.4701 76.53 86.4301 75.25 88.3901 73.97C89.5501 73.21 90.7201 72.47 91.9001 71.73C92.8301 71.14 94.2601 70.61 94.9901 69.81C95.3701 69.4 95.3401 69.11 95.3901 68.5C95.7401 64.58 96.1001 60.66 96.4501 56.74C98.6401 58.15 100.88 59.51 103.22 60.66C105.15 61.6 107.31 62.62 109.49 62.65C111.8 62.68 114.1 61.63 116.13 60.64C118.48 59.5 120.72 58.13 122.91 56.72C123.26 60.63 123.62 64.54 123.97 68.45C124.02 69.05 123.99 69.4 124.38 69.81C125.12 70.6 126.55 71.15 127.47 71.73C128.5 72.38 129.52 73.03 130.54 73.69C132.65 75.05 134.76 76.43 136.78 77.93C133.34 78.4 129.89 78.87 126.44 79.33C132.58 79.26 138.82 78.91 144.95 79.27C150.99 79.63 158.66 80.4 163.32 84.72C165.64 86.87 167.23 90.23 168.73 92.97C170.25 95.74 171.66 98.59 172.05 101.76C172.47 105.17 172.55 108.62 172.4 112.06C172.32 113.79 172.19 115.52 171.98 117.24C171.82 118.56 171.98 119.4 172.28 120.73C173.8 127.64 174.96 134.68 175.63 141.73C175.97 145.25 176.16 148.79 176.19 152.33C176.21 154.8 177.62 157.88 179.24 159.9C181.08 162.2 182.13 165.52 183.21 168.24C184.51 171.5 185.65 174.82 186.6 178.2C188.06 183.42 188.71 188.64 189.33 193.99C190.21 201.63 192.12 209.47 195.66 216.34C194.85 216.5 192.53 216.86 192.06 217.74C191.23 219.28 193.41 218.47 193.9 218.28C196.98 217.07 200.31 217.19 202.94 219.33C206.26 222.03 208.7 225.77 211.49 228.98C212.83 230.52 214.23 232.06 215.86 233.3C216.41 233.72 219.51 235.67 217.11 236.12L217.13 236.07ZM108.9 186.2C108.8 185.66 108.71 184.5 109.53 184.26C108.23 183.43 107.5 185.64 107.61 186.64C107.91 189.23 111.48 188.43 110.41 186.16C110.49 186.28 109.25 188.14 108.9 186.2ZM98.6101 328.13C98.6101 328.13 98.5901 328.13 98.5801 328.15C98.5801 328.15 98.5801 328.15 98.5901 328.15C98.5901 328.15 98.6001 328.15 98.6101 328.14V328.13ZM98.5901 328.14C98.4101 328.22 98.4601 328.2 98.5801 328.14C94.9501 329.77 90.5801 328.75 88.0401 325.69C85.7301 322.9 85.2001 319.03 86.4301 315.65C83.5401 319.83 85.1501 325.88 89.2601 328.6C93.4501 331.38 99.6201 330.2 102.02 325.61C101.05 326.67 99.9201 327.52 98.6201 328.12C98.8801 328 99.3501 327.79 98.6001 328.13L98.5901 328.14ZM117.38 325.62C119.78 330.2 125.94 331.39 130.14 328.61C134.24 325.89 135.86 319.84 132.97 315.66C134.56 320.05 133.11 325.3 128.98 327.73C125.1 330.02 120.31 328.84 117.38 325.62Z" fill="#8999A5"/>
<path d="M73.5 83.5C75 87.5 76.2 99.7 69 116.5" stroke="#8999A5" stroke-width="2" stroke-linecap="round" stroke-dasharray="2 4"/>
<path d="M146.138 83.5C144.638 87.5 143.438 99.7 150.638 116.5" stroke="#8999A5" stroke-width="2" stroke-linecap="round" stroke-dasharray="2 4"/>
<path d="M145.5 200C130 203 126 241.267 113.216 241.267" stroke="#8999A5" stroke-width="2" stroke-linecap="round" stroke-dasharray="2 4"/>
<path d="M74.1803 200C89.6802 203 93.6803 241.267 106.465 241.267" stroke="#8999A5" stroke-width="2" stroke-linecap="round" stroke-dasharray="2 4"/>
<path d="M93.1954 74.7315C108.456 79.18 111.956 79.68 126.5 74.5" stroke="#8999A5" stroke-width="2" stroke-linecap="round" stroke-dasharray="2 4"/>
</g>
<defs>
<clipPath id="clip0_63_553">
<rect width="219.38" height="451.05" fill="white"/>
</clipPath>
</defs>
</svg>
