<svg width="68" height="71" viewBox="0 0 68 71" fill="none" xmlns="http://www.w3.org/2000/svg">
<path d="M18.761 49.3006C16.6014 43.0187 15.8698 35.4777 12.0178 29.9213L12.0079 29.9439C10.8227 28.2249 10.3948 25.6395 12.8747 24.869C14.4629 24.3806 15.9952 25.309 17.2853 26.1446C19.049 27.2823 20.6978 28.7737 21.7883 30.5858C22.8535 32.3329 23.1669 35.609 24.8322 36.8786C25.3949 34.0005 24.8471 30.6755 24.6357 27.7809C24.4138 24.7875 24.1418 21.7856 23.7822 18.799C23.4623 16.2745 22.2926 11.4507 25.8044 10.6616C29.6164 9.80218 30.4118 16.5225 30.863 19.024C31.4386 22.1322 31.5576 26.1581 33.1661 28.9384C34.4612 26.018 34.2307 21.9702 34.4052 18.8409C34.5775 15.778 34.2017 11.4778 36.0368 8.86171C37.0633 7.41291 39.187 6.80937 40.4764 8.29119C41.8475 9.8628 41.6402 12.6679 41.6267 14.6016C41.613 19.1754 41.0294 23.7281 40.9931 28.292C42.6991 24.865 43.498 21.0803 44.9393 17.5506C45.6128 15.893 46.5989 13.3085 48.5312 12.7421C50.2509 12.2307 51.6201 13.6532 51.7729 15.2694C52.0193 17.8694 50.5109 20.7232 49.6995 23.1553L49.6994 23.1557C49.0793 24.9982 48.4592 26.8408 47.9458 28.7166C47.7252 29.4954 46.7796 31.8956 47.4519 32.6351C48.1542 32.3238 48.5488 30.7189 48.7776 30.1054C49.1821 29.0302 49.5238 27.914 49.8832 26.819C50.5869 24.6628 51.4477 21.7808 53.2052 20.2622C55.5191 18.2739 57.3449 20.6512 57.2829 22.9408C57.2425 24.9974 56.4775 26.9247 55.721 28.8018C54.774 31.1745 54.048 33.6576 53.2753 36.0934C52.7607 37.7264 51.972 39.4007 51.8811 41.1119C51.6643 45.3811 51.4778 49.704 50.4101 53.8556C50.0767 55.1371 49.6543 56.4065 48.9545 57.5407C48.4125 58.4074 47.5609 58.9361 47.3649 59.8738C46.8947 62.1729 47.251 64.9828 47.2744 67.3234C45.0084 67.0295 39.7364 66.3183 36.7768 65.8249C33.8171 65.3315 29.1926 62.906 27.2503 61.7549C27.2474 61.1475 27.4332 59.8955 27.1951 59.333C26.8697 58.5706 24.5659 57.8962 23.729 57.2865C21.0798 55.3426 19.7958 52.3141 18.761 49.3006Z" fill="#8999A5"/>
<circle cx="36.7626" cy="43.6231" r="14.8014" fill="#D9D9D9"/>
</svg>
