<svg width="221" height="457" viewBox="0 0 221 457" fill="none" xmlns="http://www.w3.org/2000/svg">
<g clip-path="url(#clip0_212_44)">
<path d="M218.61 233.76C217.15 232.86 218.01 233.39 218.61 233.76C213.94 230.89 210.94 225.53 207.29 221.57C205.54 219.67 203.6 217.84 201 217.26C200.18 217.08 198.25 217.33 197.76 216.87C197.4 216.53 197.13 215.54 196.93 215.09C196.6 214.33 196.29 213.56 196 212.79C193.91 207.25 192.66 201.43 192 195.56C191.6 192.01 191.41 188.47 190.74 184.95C189.59 178.89 187.79 172.97 185.48 167.25C184.57 165 183.74 162.29 182.35 160.29C181.29 158.77 180.31 157.47 179.81 155.61C179.06 152.82 179.4 149.58 179.2 146.7C178.99 143.67 178.67 140.65 178.28 137.64C177.52 131.82 176.53 126.01 175.19 120.29C174.87 118.91 175.17 117.57 175.28 116.16C175.41 114.6 175.48 113.04 175.51 111.48C175.57 108.46 175.44 105.43 175.05 102.44C174.34 96.97 171.07 92.06 168.17 87.49C165.02 82.51 159.92 80.5 154.31 79.43C151.36 78.87 148.36 78.58 145.36 78.47C143.91 78.42 142.45 78.4 141 78.44C140.12 78.46 139.88 78.39 139.18 77.86C138.59 77.42 137.99 76.99 137.39 76.58C134.94 74.89 132.39 73.34 129.85 71.8C129.16 71.39 128.48 70.97 127.79 70.56C127.45 70.36 126.59 70.07 126.41 69.74C126.33 69.58 126.35 69.23 126.34 69.06C126.05 66.41 125.76 63.76 125.47 61.12C125.34 59.97 125.22 58.82 125.09 57.67C125.07 57.52 124.96 57.15 125.02 57.01C125.08 56.85 125.51 56.67 125.68 56.56C126.27 56.15 126.82 55.67 127.28 55.11C128.44 53.74 128.91 51.92 129.48 50.25C130.29 47.89 131.02 45.5 131.66 43.09C134.44 32.69 135.81 19.88 129.81 10.27C127.12 5.96 122.87 2.98 117.95 1.76C116.07 1.29 111.12 0.7 107.47 1.17C102.57 1.8 97.5401 3.54 94.0701 7.13C90.3201 11.02 88.5801 16.28 87.8601 21.53C86.4201 32.01 89.0701 42.3 92.5601 52.12C92.9401 53.2 93.3601 54.23 94.1101 55.12C94.4901 55.57 94.9101 55.97 95.3801 56.33C95.5501 56.46 96.3201 56.85 96.3901 57.03C96.5801 57.51 96.2001 58.75 96.1501 59.25C95.8401 62.07 95.5301 64.88 95.2201 67.7C95.1601 68.24 95.2501 69.25 95.0001 69.73C94.8201 70.07 93.9601 70.35 93.6201 70.55C92.9301 70.96 92.2401 71.37 91.5601 71.79C90.2701 72.57 88.9801 73.36 87.7001 74.17C86.4601 74.95 85.2301 75.75 84.0201 76.58C83.4801 76.95 82.9501 77.32 82.4301 77.71C81.6401 78.3 81.4101 78.46 80.4101 78.44C77.3801 78.36 74.3501 78.48 71.3401 78.81C65.9901 79.39 59.7101 80.52 55.6401 84.36C53.7201 86.17 52.4101 88.72 51.0801 90.96C49.6301 93.41 48.2201 95.95 47.2401 98.64C46.2501 101.36 46.0701 104.33 45.9401 107.2C45.8101 110.18 45.8801 113.18 46.1201 116.16C46.2401 117.57 46.5301 118.91 46.2101 120.29C45.8601 121.79 45.5401 123.29 45.2401 124.8C44.6601 127.68 44.1601 130.58 43.7101 133.48C42.8001 139.46 42.1601 145.48 41.9501 151.53C41.8501 154.35 41.6101 156.85 39.9301 159.22C38.9401 160.62 38.2101 161.96 37.4801 163.56C33.3601 172.75 30.6301 182.42 29.6901 192.44C29.1601 198.03 28.3401 203.53 26.7101 208.92C26.3201 210.22 25.8801 211.51 25.4001 212.78C25.1401 213.48 24.8601 214.17 24.5701 214.85C24.3401 215.38 24.0601 216.47 23.6401 216.86C23.1601 217.31 21.2201 217.06 20.4001 217.25C19.0601 217.55 17.8701 218.17 16.8001 219C12.4001 222.43 9.54008 227.54 5.59008 231.45C4.72008 232.31 3.80008 233.05 2.79008 233.75C1.96008 234.32 1.03008 235.03 1.00008 236.14C0.940079 238.04 2.97008 238.54 4.46008 238.42C6.25008 238.28 8.08008 237.77 9.63008 236.86C10.6001 236.29 11.3701 235.51 12.1801 234.73C12.8101 234.11 13.6601 233 14.5701 232.78C14.1201 234.75 12.9201 236.67 12.0001 238.44C10.8101 240.72 9.57008 242.98 8.28008 245.21C7.26008 246.96 5.05008 249.49 5.98008 251.61C7.66008 255.46 11.3501 250.63 12.5101 249.05C13.5001 247.71 14.3701 246.29 15.3201 244.92C16.1401 243.75 17.0001 242.27 18.1701 241.4C18.1701 242.66 17.6401 243.98 17.2601 245.16C16.7901 246.62 16.2601 248.06 15.7301 249.5C14.8801 251.78 13.1601 254.91 13.7901 257.39C14.1501 258.81 15.6201 259.81 17.0001 259.03C18.4401 258.22 19.1601 256.23 19.7801 254.8C21.2501 251.4 22.3101 247.84 23.7701 244.43C23.9201 247.45 23.3201 250.45 23.2101 253.46C23.1601 254.93 23.0201 257.16 24.1601 258.31C25.2501 259.41 26.8601 258.81 27.5301 257.61C28.5601 255.78 28.3701 253.17 28.5601 251.11C28.7101 249.53 28.8501 247.95 29.0601 246.38C29.1501 245.71 29.1901 243.66 29.9001 243.28C30.6801 244.02 30.0601 246.74 29.9701 247.68C29.8001 249.41 29.6101 251.23 29.8601 252.96C30.0801 254.55 31.4501 256.58 33.1801 255.15C34.2901 254.23 34.5901 252.38 34.7501 251.04C34.9401 249.5 34.9001 247.93 35.0401 246.38C35.2301 244.21 35.5101 242.06 35.7001 239.89C35.7901 238.85 36.1901 238.02 36.5601 237.05C37.2101 235.34 37.8001 233.61 38.3001 231.86C38.8001 230.11 39.2801 228.26 39.2701 226.42C39.2701 225.85 39.2201 225.27 39.0901 224.72C39.0101 224.38 38.6101 223.8 38.6201 223.48C38.6201 222.73 39.3701 221.59 39.6501 220.92C41.4401 216.64 43.4401 212.43 45.5301 208.29C50.4701 198.47 55.9201 188.87 59.2901 178.35C61.0801 172.75 61.8301 166.97 63.3201 161.3C64.6701 156.17 66.4401 151.12 68.3301 146.16C69.0401 148.9 69.7501 151.64 70.4601 154.38C71.0001 156.47 71.9101 158.74 72.1101 160.89C72.3401 163.34 72.0801 165.93 72.0601 168.39C72.0301 172.28 72.0101 176.16 71.9801 180.05C71.9701 182.2 71.6801 184.54 71.9401 186.68C72.0501 187.56 72.5701 188.44 72.8501 189.29C73.4201 190.97 72.4101 193.52 72.0801 195.28C71.3701 199.14 70.7201 203.01 70.1601 206.89C67.9101 222.54 68.8701 238.63 69.9101 254.36C70.9501 270.05 73.4201 285.52 77.5201 300.7C79.2901 307.26 81.2601 313.76 81.4201 320.6C81.5501 326.41 80.2401 332.1 78.8701 337.7C76.9901 345.4 76.0501 353 77.0001 360.92C77.9101 368.53 80.1301 375.91 82.3501 383.22C84.4601 390.18 86.6001 397.13 88.7301 404.08C90.3901 409.49 92.1101 414.9 93.5101 420.39C93.9601 422.17 94.7601 424.46 94.4201 426.29C94.1501 427.76 92.1601 433.82 91.9701 434.7C91.7801 435.58 91.4801 436.61 90.8501 437.63C90.2101 438.65 89.2001 439.67 88.0201 440.8C87.4401 441.38 86.8301 441.98 86.1901 442.6C85.8801 442.92 85.5701 443.24 85.2601 443.57C84.9301 443.92 84.6201 444.29 84.3001 444.67C83.7101 445.47 83.0901 446.31 82.7401 447.39C82.3801 448.43 82.2701 449.76 82.8501 450.94C84.1101 453.31 86.9601 453.82 89.0501 453.78C90.0801 453.78 91.0901 453.88 92.0201 454.13C92.9301 454.38 93.7901 454.95 94.9101 455.42C97.1201 456.32 99.4501 456.42 101.59 456.47C103.79 456.44 106.1 456.33 108.13 455.19C108.6 454.85 109.1 454.56 109.51 454.17C109.87 453.73 110.34 453.36 110.58 452.85C110.61 452.79 110.64 452.74 110.67 452.68C110.7 452.74 110.73 452.79 110.76 452.85C111 453.36 111.47 453.73 111.83 454.17C112.24 454.56 112.75 454.85 113.21 455.19C115.24 456.34 117.56 456.45 119.75 456.47C121.89 456.42 124.22 456.32 126.43 455.42C127.55 454.96 128.41 454.39 129.32 454.13C130.24 453.87 131.26 453.77 132.29 453.78C134.38 453.82 137.23 453.3 138.49 450.94C139.07 449.76 138.96 448.43 138.6 447.39C138.25 446.31 137.63 445.47 137.04 444.67C136.72 444.3 136.41 443.92 136.08 443.57C135.76 443.24 135.45 442.92 135.15 442.6C134.52 441.98 133.91 441.38 133.33 440.8C132.16 439.67 131.14 438.65 130.5 437.63C130.04 436.89 128.48 431.89 128.48 431.89C127.63 429.34 126.79 426.08 127.01 424.41C127.34 421.99 128.04 419.6 128.7 417.26C129.99 412.62 131.44 408.02 132.85 403.41C134.97 396.51 137.09 389.6 139.19 382.69C141.38 375.46 143.55 368.15 144.41 360.62C145.29 352.97 144.43 345.58 142.61 338.13C141.21 332.38 139.82 326.55 139.96 320.59C140.11 314.08 141.91 307.89 143.61 301.65C145.6 294.32 147.34 286.96 148.58 279.47C149.82 271.99 150.6 264.46 151.27 256.91C151.95 249.15 152.24 241.32 152.39 233.53C152.53 225.98 152.71 218.47 151.65 210.98C151.13 207.28 150.47 203.6 149.75 199.94C149.37 198.01 148.98 196.09 148.56 194.16C148.37 193.29 148.18 192.41 147.98 191.54C147.72 190.37 147.72 189.8 147.92 188.63C148.41 185.82 148.11 182.78 148.09 179.93C148.05 174.14 148.01 168.35 147.97 162.56C147.96 160.71 148.37 159.41 148.91 157.61L152.01 147.28L152.66 145.12C154.24 149.17 155.68 153.28 156.96 157.43C158.53 162.51 159.27 167.72 160.55 172.86C163.22 183.65 168.22 193.7 173.39 203.49C175.82 208.09 178.12 212.76 180.26 217.5C181.04 219.23 182.22 221.2 182.62 223.06C182.78 223.82 182.32 224.49 182.2 225.31C182.05 226.38 182.15 227.46 182.32 228.52C182.88 231.95 184.15 235.22 185.38 238.46C185.87 239.76 185.83 241.26 185.98 242.64C186.2 244.7 186.47 246.78 186.54 248.85C186.59 250.49 186.65 252.17 187.29 253.71C187.99 255.43 190.12 256.6 191.19 254.37C192 252.67 191.7 250.25 191.52 248.42C191.43 247.49 191.32 246.55 191.27 245.62C191.24 245.09 191.01 243.77 191.43 243.31C192.17 243.64 192.25 245.73 192.34 246.38C192.57 247.94 192.71 249.51 192.85 251.08C193.04 253.15 192.85 255.76 193.88 257.61C194.52 258.76 196 259.37 197.11 258.43C198.36 257.38 198.25 255.14 198.21 253.69C198.13 250.6 197.49 247.53 197.64 244.43C199.1 247.83 200.15 251.4 201.63 254.8C202.25 256.24 203.01 258.39 204.54 259.11C205.98 259.79 207.36 258.65 207.65 257.24C208.16 254.7 206.48 251.63 205.61 249.3C204.72 246.92 203.23 243.99 203.24 241.4C205.34 242.94 206.74 245.89 208.18 248.01C209.33 249.72 212.11 254.45 214.66 252.57C217.01 250.84 214.57 247.64 213.51 245.87C212.27 243.77 211.09 241.63 209.95 239.48C208.85 237.4 207.36 235.11 206.84 232.79C208.49 233.19 209.79 235.52 211.15 236.47C212.55 237.46 214.26 238.03 215.94 238.3C217.17 238.5 218.61 238.69 219.63 237.81C221.22 236.43 220.06 234.65 218.62 233.76H218.61ZM113.11 334.16C112.88 338.05 112.24 341.92 111.92 345.8C111.46 351.42 111.51 357.05 111.29 362.68C111.15 366.17 111.15 369.67 111.29 373.16C111.45 377.09 111.94 380.99 112.13 384.91C112.55 393.82 111.58 402.76 110.73 411.62C109.94 403.54 109.08 395.41 109.23 387.27C109.3 383.27 109.81 379.3 110.03 375.31C110.26 371.19 110.31 367.05 110.14 362.93C109.87 356.32 109.98 349.7 109.34 343.12C109.12 340.81 108.8 338.51 108.53 336.2C108.27 333.99 107.97 331.53 108.46 329.33C108.94 327.17 109.85 325.19 110.14 322.95C110.44 320.65 110.38 318.3 110.14 316C109.6 310.74 110.2 305.67 110.73 300.43C111.16 304.43 111.94 308.59 111.67 312.63C111.42 316.43 110.52 319.97 111.2 323.81C111.47 325.35 111.94 326.84 112.55 328.27C113.33 330.09 113.24 332.2 113.12 334.16H113.11Z" fill="#F8F1F1"/>
</g>
<path d="M102.46 322.12C98.7201 318.47 92.1601 319.14 88.4601 322.41C88.9001 322.29 89.3401 322.15 89.7701 322.01C93.6901 320.45 98.5301 320.85 102.46 322.12ZM110.6 52.91C110.6 52.91 110.6 52.89 110.59 52.89C110.59 52.89 110.59 52.9 110.59 52.91H110.6ZM101.87 99.8C101.48 98.45 101.21 97.7 101.21 97.7C101.21 97.7 101.34 98.49 101.57 99.87C101.81 101.25 102.06 103.23 102.37 105.59C102.65 107.95 102.86 110.73 102.82 113.66C102.77 115.12 102.62 116.61 102.27 118.06C101.88 119.48 101.23 120.93 100.56 122.33C99.1701 125.14 97.5001 127.83 95.7501 130.2C94.0001 132.57 92.1601 134.64 90.2801 136.03C89.3401 136.72 88.4201 137.27 87.5401 137.57C86.6601 137.89 85.8201 137.94 85.1601 137.83C84.4901 137.71 83.9901 137.49 83.6701 137.3C83.3501 137.12 83.1901 136.99 83.1901 136.99C83.1901 136.99 83.3301 137.13 83.6301 137.36C83.9301 137.59 84.4001 137.91 85.1001 138.1C85.8001 138.29 86.7101 138.33 87.6901 138.08C88.6701 137.84 89.7301 137.38 90.7601 136.7C92.8201 135.35 94.8801 133.35 96.7901 130.99C98.6901 128.62 100.46 125.9 101.91 122.99C102.64 121.53 103.27 120.04 103.71 118.42C104.09 116.81 104.21 115.2 104.2 113.67C104.18 110.61 103.69 107.82 103.26 105.45C102.83 103.08 102.26 101.15 101.89 99.8H101.87ZM100.84 452.6C99.9201 452.48 99.0701 452.16 98.4401 451.58C97.8001 451 97.4101 450.17 97.2001 449.27C96.7501 447.44 96.9601 445.52 97.2001 443.61C97.7001 439.88 98.5801 436.39 99.1701 433.36C99.7801 430.33 99.9201 427.74 99.9401 425.94C99.9501 425.04 99.9101 424.34 99.8801 423.86C99.8501 423.38 99.8401 423.12 99.8401 423.12C99.8401 423.12 99.8301 423.38 99.8101 423.86C99.8001 424.34 99.7501 425.04 99.6801 425.93C99.5501 427.71 99.1401 430.23 98.4201 433.2C97.7301 436.17 96.5901 439.59 96.0201 443.47C95.7701 445.34 95.4701 447.45 95.9601 449.57C96.1901 450.62 96.6601 451.73 97.5401 452.55C98.4101 453.38 99.5601 453.81 100.66 453.96C101.78 454.11 102.85 454.02 103.91 453.86C104.47 453.78 104.89 453.69 105.47 453.55C106.06 453.42 106.62 453.09 107.06 452.68C107.96 451.84 108.34 450.73 108.55 449.71C108.76 448.67 108.81 447.66 108.8 446.67C108.77 444.69 108.45 442.83 108.07 441.09C107.88 440.22 107.67 439.38 107.44 438.58C107.23 437.77 106.91 436.99 106.75 436.3C106.41 434.84 106.2 433.44 106.01 432.21C105.84 430.98 105.69 429.9 105.57 429.01C105.35 427.23 105.22 426.22 105.22 426.22C105.22 426.22 105.22 427.25 105.31 429.04C105.36 429.94 105.43 431.02 105.51 432.27C105.61 433.52 105.7 434.92 106.01 436.47C106.17 437.28 106.43 438 106.6 438.8C106.79 439.6 106.96 440.43 107.1 441.28C107.39 442.99 107.6 444.82 107.62 446.68C107.62 447.61 107.56 448.55 107.36 449.45C107.16 450.34 106.81 451.21 106.21 451.74C105.91 452 105.57 452.21 105.16 452.29C104.74 452.38 104.17 452.5 103.72 452.55C102.77 452.68 101.78 452.74 100.86 452.6H100.84ZM110.59 329.13C110.59 329.13 110.6 329.13 110.61 329.12C110.6 329.12 110.59 329.12 110.58 329.14C110.58 329.14 110.58 329.14 110.59 329.14V329.13ZM52.6901 170.36C52.4401 170.53 52.1501 170.66 51.8601 170.78C51.5901 170.93 51.2601 170.96 50.9601 171.06C50.6401 171.08 50.3301 171.18 50.0001 171.16C49.6801 171.13 49.3501 171.2 49.0401 171.13C48.7301 171.07 48.4101 171.07 48.1101 171.01C47.8201 170.94 47.5301 170.88 47.2701 170.83C46.7401 170.73 46.3001 170.57 45.9801 170.51C45.6601 170.44 45.4601 170.41 45.4601 170.41C45.4601 170.41 45.6001 170.54 45.8501 170.76C46.1101 170.96 46.4701 171.3 46.9801 171.57C47.4801 171.86 48.1001 172.16 48.8401 172.32C49.1901 172.44 49.6001 172.45 50.0001 172.49C50.4001 172.53 50.8201 172.44 51.2301 172.41C51.6301 172.28 52.0501 172.2 52.4101 171.99C52.7901 171.82 53.1201 171.57 53.4101 171.32C53.7101 171.08 53.9501 170.78 54.1601 170.51C54.3701 170.23 54.5301 169.95 54.6601 169.68C55.1901 168.61 55.1501 167.81 55.1501 167.81C55.1501 167.81 54.7301 168.47 54.0101 169.24C53.6601 169.63 53.2001 170.02 52.6901 170.36ZM136.05 137.82C135.38 137.93 134.55 137.88 133.67 137.56C132.78 137.26 131.86 136.7 130.93 136.02C129.05 134.63 127.21 132.55 125.46 130.19C123.71 127.82 122.04 125.13 120.65 122.32C119.98 120.91 119.33 119.47 118.94 118.05C118.59 116.6 118.44 115.12 118.39 113.65C118.35 110.72 118.55 107.95 118.84 105.58C119.14 103.22 119.39 101.24 119.64 99.86C119.87 98.48 120 97.69 120 97.69C120 97.69 119.72 98.44 119.34 99.79C118.97 101.14 118.4 103.07 117.97 105.44C117.54 107.81 117.05 110.59 117.03 113.66C117.02 115.19 117.13 116.8 117.52 118.41C117.96 120.02 118.59 121.52 119.32 122.98C120.77 125.89 122.54 128.61 124.44 130.98C126.35 133.34 128.41 135.34 130.47 136.69C131.49 137.37 132.55 137.84 133.54 138.07C134.52 138.31 135.44 138.28 136.13 138.09C136.83 137.9 137.31 137.58 137.6 137.35C137.9 137.12 138.04 136.98 138.04 136.98C138.04 136.98 137.88 137.1 137.56 137.29C137.24 137.48 136.74 137.7 136.07 137.82H136.05ZM111.07 146.74C111.01 144.19 110.87 142.07 110.82 140.58C110.74 139.09 110.69 138.24 110.69 138.24C110.69 138.24 110.64 139.09 110.56 140.58C110.5 142.07 110.37 144.19 110.31 146.74C110.25 149.29 110.14 152.26 110.09 155.45C110.03 158.64 110.02 159.29 110.01 162.69C110.02 166.09 110.03 168.12 110.09 171.3C110.13 174.49 110.25 177.46 110.31 180.01C110.37 182.56 110.51 184.68 110.56 186.17C110.64 187.66 110.69 188.51 110.69 188.51C110.69 188.51 110.74 187.66 110.82 186.17C110.88 184.68 111.01 182.56 111.07 180.01C111.13 177.46 111.25 174.49 111.29 171.3C111.35 168.11 111.36 166.08 111.37 162.69C111.36 159.29 111.35 158.63 111.29 155.45C111.25 152.26 111.13 149.29 111.07 146.74ZM173.92 170.84C173.65 170.89 173.37 170.94 173.08 171.02C172.78 171.08 172.47 171.08 172.15 171.14C171.83 171.22 171.51 171.14 171.19 171.17C170.86 171.19 170.55 171.09 170.23 171.07C169.93 170.97 169.6 170.94 169.33 170.79C169.04 170.67 168.76 170.54 168.5 170.37C167.99 170.03 167.53 169.65 167.18 169.25C166.46 168.48 166.04 167.82 166.04 167.82C166.04 167.82 166.01 168.62 166.53 169.69C166.65 169.96 166.82 170.24 167.03 170.52C167.24 170.79 167.48 171.09 167.78 171.33C168.08 171.58 168.4 171.83 168.78 172C169.14 172.21 169.56 172.29 169.96 172.42C170.37 172.45 170.79 172.54 171.19 172.5C171.59 172.47 171.99 172.45 172.35 172.33C173.09 172.16 173.71 171.87 174.21 171.58C174.72 171.32 175.08 170.97 175.34 170.77C175.6 170.55 175.73 170.42 175.73 170.42C175.73 170.42 175.54 170.45 175.21 170.52C174.88 170.58 174.45 170.74 173.92 170.84ZM118.91 322.12C122.84 320.85 127.67 320.45 131.6 322.01C132.04 322.15 132.47 322.29 132.91 322.41C129.21 319.15 122.66 318.47 118.91 322.12ZM121.7 425.93C121.63 425.04 121.58 424.34 121.57 423.86C121.55 423.38 121.54 423.12 121.54 423.12C121.54 423.12 121.53 423.38 121.5 423.86C121.47 424.34 121.43 425.05 121.44 425.94C121.45 427.73 121.6 430.32 122.21 433.36C122.8 436.39 123.68 439.87 124.18 443.61C124.42 445.52 124.63 447.44 124.18 449.27C123.97 450.17 123.58 451 122.94 451.58C122.31 452.16 121.46 452.48 120.54 452.6C119.63 452.74 118.63 452.68 117.68 452.55C117.23 452.5 116.65 452.38 116.24 452.29C115.84 452.21 115.49 452 115.19 451.74C114.59 451.21 114.23 450.34 114.04 449.45C113.84 448.55 113.77 447.61 113.78 446.68C113.8 444.82 114.01 442.99 114.3 441.28C114.45 440.42 114.62 439.59 114.8 438.8C114.97 438 115.23 437.28 115.39 436.47C115.7 434.93 115.79 433.52 115.89 432.27C115.97 431.02 116.03 429.93 116.09 429.04C116.17 427.25 116.18 426.22 116.18 426.22C116.18 426.22 116.05 427.24 115.83 429.01C115.71 429.9 115.56 430.97 115.39 432.21C115.19 433.44 114.99 434.84 114.65 436.3C114.48 436.99 114.17 437.77 113.96 438.58C113.73 439.39 113.52 440.22 113.33 441.09C112.96 442.83 112.63 444.69 112.6 446.67C112.58 447.66 112.63 448.68 112.85 449.71C113.07 450.73 113.44 451.84 114.34 452.68C114.78 453.09 115.34 453.42 115.93 453.55C116.5 453.68 116.92 453.78 117.49 453.86C118.55 454.02 119.62 454.11 120.74 453.96C121.84 453.81 123 453.38 123.86 452.55C124.73 451.73 125.2 450.62 125.44 449.57C125.93 447.45 125.64 445.34 125.38 443.47C124.82 439.59 123.68 436.18 122.98 433.2C122.26 430.23 121.85 427.72 121.72 425.93H121.7ZM118.22 55.86C118.69 55.93 118.96 55.97 118.96 55.97C118.96 55.97 118.72 55.84 118.31 55.61C117.89 55.39 117.28 55.06 116.51 54.79C116.12 54.65 115.71 54.47 115.25 54.37C114.79 54.26 114.31 54.11 113.81 54.02C113.3 53.95 112.78 53.83 112.23 53.79C111.69 53.76 111.14 53.7 110.59 53.7C109.49 53.71 108.38 53.78 107.37 53.98C106.86 54.05 106.38 54.2 105.92 54.3C105.47 54.43 105.04 54.56 104.65 54.71C103.1 55.28 102.22 55.96 102.22 55.96C102.22 55.96 103.28 55.71 104.85 55.47C105.64 55.35 106.55 55.24 107.52 55.17C108.01 55.12 108.51 55.11 109.03 55.09C109.54 55.05 110.06 55.07 110.58 55.07C111.62 55.07 112.66 55.14 113.64 55.21C114.13 55.26 114.6 55.32 115.05 55.37C115.5 55.41 115.92 55.5 116.32 55.55C116.71 55.62 117.08 55.64 117.4 55.71C117.72 55.77 118 55.82 118.23 55.86H118.22ZM218.59 233.75C217.13 232.85 217.99 233.38 218.59 233.75C213.92 230.88 210.92 225.52 207.27 221.56C205.52 219.66 203.58 217.83 200.98 217.25C200.16 217.07 198.23 217.32 197.74 216.86C197.38 216.52 197.11 215.53 196.91 215.08C196.58 214.32 196.27 213.55 195.98 212.78C193.89 207.24 192.64 201.42 191.98 195.55C191.58 192 191.39 188.46 190.72 184.94C189.57 178.88 187.77 172.96 185.46 167.24C184.55 164.99 183.72 162.28 182.33 160.28C181.27 158.76 180.29 157.46 179.79 155.6C179.04 152.81 179.38 149.57 179.18 146.69C178.97 143.66 178.65 140.64 178.26 137.63C177.5 131.81 176.51 126 175.17 120.28C174.85 118.9 175.15 117.56 175.26 116.15C175.39 114.59 175.46 113.03 175.49 111.47C175.55 108.45 175.42 105.42 175.03 102.43C174.32 96.96 171.05 92.05 168.15 87.48C165 82.5 159.9 80.49 154.29 79.42C151.34 78.86 148.34 78.57 145.34 78.46C143.89 78.41 142.43 78.39 140.98 78.43C140.1 78.45 139.86 78.38 139.16 77.85C138.57 77.41 137.97 76.98 137.37 76.57C134.92 74.88 132.37 73.33 129.83 71.79C129.14 71.38 128.46 70.96 127.77 70.55C127.43 70.35 126.57 70.06 126.39 69.73C126.31 69.57 126.33 69.22 126.32 69.05C126.03 66.4 125.74 63.75 125.45 61.11C125.32 59.96 125.2 58.81 125.07 57.66C125.05 57.51 124.94 57.14 125 57C125.06 56.84 125.49 56.66 125.66 56.55C126.25 56.14 126.8 55.66 127.26 55.1C128.42 53.73 128.89 51.91 129.46 50.24C130.27 47.88 131 45.49 131.64 43.08C134.42 32.68 135.79 19.87 129.79 10.26C127.1 5.94998 122.85 2.96998 117.93 1.74998C116.05 1.27998 111.1 0.689984 107.45 1.15998C102.55 1.78998 97.5201 3.52998 94.0501 7.11998C90.3001 11.01 88.5601 16.27 87.8401 21.52C86.4001 32 89.0501 42.29 92.5401 52.11C92.9201 53.19 93.3401 54.22 94.0901 55.11C94.4701 55.56 94.8901 55.96 95.3601 56.32C95.5301 56.45 96.3001 56.84 96.3701 57.02C96.5601 57.5 96.1801 58.74 96.1301 59.24C95.8201 62.06 95.5101 64.87 95.2001 67.69C95.1401 68.23 95.2301 69.24 94.9801 69.72C94.8001 70.06 93.9401 70.34 93.6001 70.54C92.9101 70.95 92.2201 71.36 91.5401 71.78C90.2501 72.56 88.9601 73.35 87.6801 74.16C86.4401 74.94 85.2101 75.74 84.0001 76.57C83.4601 76.94 82.9301 77.31 82.4101 77.7C81.6201 78.29 81.3901 78.45 80.3901 78.43C77.3701 78.35 74.3301 78.47 71.3201 78.8C65.9701 79.38 59.6901 80.51 55.6201 84.35C53.7001 86.16 52.3901 88.71 51.0601 90.95C49.6101 93.4 48.2001 95.94 47.2201 98.63C46.2301 101.35 46.0501 104.32 45.9201 107.19C45.7901 110.17 45.8601 113.17 46.1001 116.15C46.2201 117.56 46.5101 118.9 46.1901 120.28C45.8401 121.78 45.5201 123.28 45.2201 124.79C44.6401 127.67 44.1401 130.57 43.6901 133.47C42.7801 139.45 42.1401 145.47 41.9301 151.52C41.8301 154.34 41.5901 156.84 39.9101 159.21C38.9201 160.61 38.1901 161.95 37.4601 163.55C33.3401 172.74 30.6101 182.41 29.6701 192.43C29.1401 198.02 28.3201 203.52 26.6901 208.91C26.3001 210.21 25.8601 211.5 25.3801 212.77C25.1201 213.47 24.8401 214.16 24.5501 214.84C24.3201 215.37 24.0401 216.46 23.6201 216.85C23.1401 217.3 21.2001 217.05 20.3801 217.24C19.0401 217.54 17.8501 218.16 16.7801 218.99C12.3801 222.42 9.52006 227.53 5.57006 231.44C4.70006 232.3 3.78006 233.04 2.77006 233.74C1.94006 234.31 1.01006 235.02 0.98006 236.13C0.92006 238.03 2.95006 238.53 4.44006 238.41C6.23006 238.27 8.06006 237.76 9.61006 236.85C10.5901 236.28 11.3501 235.5 12.1601 234.72C12.7901 234.1 13.6401 232.99 14.5501 232.77C14.1001 234.74 12.9001 236.66 11.9801 238.43C10.7901 240.71 9.55006 242.97 8.26006 245.2C7.24006 246.95 5.03006 249.48 5.96006 251.6C7.64006 255.45 11.3301 250.62 12.4901 249.04C13.4801 247.7 14.3501 246.28 15.3001 244.91C16.1201 243.74 16.9801 242.26 18.1501 241.39C18.1501 242.65 17.6201 243.97 17.2401 245.15C16.7701 246.61 16.2401 248.05 15.7101 249.49C14.8601 251.77 13.1401 254.9 13.7701 257.38C14.1301 258.8 15.6001 259.8 16.9801 259.02C18.4201 258.21 19.1401 256.22 19.7601 254.79C21.2301 251.39 22.2901 247.83 23.7501 244.42C23.9001 247.44 23.3001 250.44 23.1901 253.45C23.1401 254.92 23.0001 257.15 24.1401 258.3C25.2301 259.4 26.8401 258.8 27.5101 257.6C28.5401 255.77 28.3501 253.16 28.5401 251.1C28.6901 249.52 28.8301 247.94 29.0401 246.37C29.1301 245.7 29.1701 243.65 29.8801 243.27C30.6601 244.01 30.0401 246.73 29.9501 247.67C29.7801 249.4 29.5901 251.22 29.8401 252.95C30.0601 254.54 31.4301 256.57 33.1601 255.14C34.2701 254.22 34.5701 252.37 34.7301 251.03C34.9201 249.49 34.8801 247.92 35.0201 246.37C35.2101 244.2 35.4901 242.05 35.6801 239.88C35.7701 238.84 36.1701 238.01 36.5401 237.04C37.1901 235.33 37.7801 233.6 38.2801 231.85C38.7801 230.1 39.2601 228.25 39.2501 226.41C39.2501 225.84 39.2001 225.26 39.0701 224.71C38.9901 224.37 38.5901 223.79 38.6001 223.47C38.6001 222.72 39.3501 221.58 39.6301 220.91C41.4201 216.63 43.4201 212.42 45.5101 208.28C50.4501 198.46 55.9001 188.86 59.2701 178.34C61.0601 172.74 61.8101 166.96 63.3001 161.29C64.6501 156.16 66.4201 151.11 68.3101 146.15C69.0201 148.89 69.7301 151.63 70.4401 154.37C70.9801 156.46 71.8901 158.73 72.0901 160.88C72.3201 163.33 72.0601 165.92 72.0401 168.38C72.0101 172.27 71.9901 176.15 71.9601 180.04C71.9501 182.19 71.6601 184.53 71.9201 186.67C72.0301 187.55 72.5501 188.43 72.8301 189.28C73.4001 190.96 72.3901 193.51 72.0601 195.27C71.3501 199.13 70.7001 203 70.1401 206.88C67.8901 222.53 68.8501 238.62 69.8901 254.35C70.9301 270.04 73.4001 285.51 77.5001 300.69C79.2701 307.25 81.2401 313.75 81.4001 320.59C81.5301 326.4 80.2201 332.09 78.8501 337.69C76.9701 345.39 76.0301 352.99 76.9801 360.91C77.8901 368.52 80.1101 375.9 82.3301 383.21C84.4401 390.17 86.5801 397.12 88.7101 404.07C90.3701 409.48 92.0901 414.89 93.4901 420.38C93.9401 422.16 94.7401 424.45 94.4001 426.28C94.1301 427.75 92.1401 433.81 91.9501 434.69C91.7601 435.57 91.4601 436.6 90.8301 437.62C90.1901 438.64 89.1801 439.66 88.0001 440.79C87.4101 441.37 86.8101 441.97 86.1701 442.59C85.8601 442.91 85.5501 443.23 85.2401 443.56C84.9101 443.91 84.6001 444.28 84.2801 444.66C83.6901 445.46 83.0701 446.3 82.7201 447.38C82.3601 448.42 82.2501 449.75 82.8301 450.93C84.0901 453.3 86.9401 453.81 89.0301 453.77C90.0601 453.77 91.0701 453.87 92.0001 454.12C92.9101 454.37 93.7701 454.94 94.8901 455.41C97.1001 456.31 99.4301 456.41 101.57 456.46C103.77 456.43 106.08 456.32 108.11 455.18C108.58 454.84 109.08 454.55 109.49 454.16C109.85 453.72 110.32 453.35 110.56 452.84C110.59 452.78 110.62 452.73 110.65 452.67C110.68 452.73 110.71 452.78 110.74 452.84C110.98 453.35 111.45 453.72 111.81 454.16C112.22 454.55 112.73 454.84 113.19 455.18C115.22 456.33 117.54 456.44 119.73 456.46C121.87 456.41 124.2 456.31 126.41 455.41C127.53 454.95 128.39 454.38 129.3 454.12C130.22 453.86 131.24 453.76 132.27 453.77C134.36 453.81 137.21 453.29 138.47 450.93C139.05 449.75 138.94 448.42 138.58 447.38C138.23 446.3 137.61 445.46 137.02 444.66C136.7 444.29 136.39 443.91 136.06 443.56C135.74 443.23 135.43 442.91 135.13 442.59C134.5 441.97 133.89 441.37 133.3 440.79C132.13 439.66 131.11 438.64 130.47 437.62C130.01 436.88 128.45 431.88 128.45 431.88C127.6 429.33 126.76 426.07 126.98 424.4C127.31 421.98 128.01 419.59 128.67 417.25C129.96 412.61 131.41 408.01 132.82 403.4C134.94 396.5 137.06 389.59 139.16 382.68C141.35 375.45 143.52 368.14 144.38 360.61C145.26 352.96 144.4 345.57 142.58 338.12C141.18 332.37 139.79 326.54 139.93 320.58C140.08 314.07 141.88 307.88 143.58 301.64C145.57 294.31 147.31 286.95 148.55 279.46C149.79 271.98 150.57 264.45 151.24 256.9C151.92 249.14 152.21 241.31 152.36 233.52C152.5 225.97 152.68 218.46 151.62 210.97C151.1 207.27 150.44 203.59 149.72 199.93C149.34 198 148.95 196.08 148.53 194.15C148.34 193.28 148.15 192.4 147.95 191.53C147.69 190.36 147.69 189.79 147.89 188.62C148.38 185.81 148.08 182.77 148.06 179.92C148.02 174.13 147.98 168.34 147.94 162.55C147.93 160.7 148.34 159.4 148.88 157.6L151.98 147.27L152.63 145.11C154.21 149.16 155.65 153.27 156.93 157.42C158.5 162.5 159.24 167.71 160.52 172.85C163.19 183.64 168.19 193.69 173.36 203.48C175.79 208.08 178.09 212.75 180.23 217.49C181.01 219.22 182.19 221.19 182.59 223.05C182.75 223.81 182.29 224.48 182.17 225.3C182.02 226.37 182.12 227.45 182.29 228.51C182.85 231.94 184.12 235.21 185.35 238.45C185.84 239.75 185.8 241.25 185.95 242.63C186.17 244.69 186.44 246.77 186.51 248.84C186.56 250.48 186.62 252.16 187.26 253.7C187.96 255.42 190.09 256.59 191.16 254.36C191.97 252.66 191.67 250.24 191.49 248.41C191.4 247.48 191.29 246.54 191.24 245.61C191.21 245.08 190.98 243.76 191.4 243.3C192.14 243.63 192.22 245.72 192.31 246.37C192.54 247.93 192.68 249.5 192.82 251.07C193.01 253.14 192.82 255.75 193.85 257.6C194.49 258.75 195.97 259.36 197.08 258.42C198.33 257.37 198.22 255.13 198.18 253.68C198.1 250.59 197.46 247.52 197.61 244.42C199.07 247.82 200.12 251.39 201.6 254.79C202.22 256.23 202.98 258.38 204.51 259.1C205.95 259.78 207.33 258.64 207.62 257.23C208.13 254.69 206.45 251.62 205.58 249.29C204.69 246.91 203.2 243.98 203.21 241.39C205.31 242.93 206.71 245.88 208.15 248C209.3 249.71 212.08 254.44 214.63 252.56C216.98 250.83 214.54 247.63 213.48 245.86C212.24 243.76 211.06 241.62 209.92 239.47C208.82 237.39 207.33 235.1 206.81 232.78C208.46 233.18 209.76 235.51 211.12 236.46C212.52 237.45 214.23 238.02 215.91 238.29C217.14 238.49 218.58 238.68 219.6 237.8C221.19 236.42 220.03 234.64 218.59 233.75ZM110.7 411.62C109.91 403.54 109.05 395.41 109.2 387.27C109.27 383.27 109.78 379.3 110 375.31C110.23 371.19 110.28 367.05 110.11 362.93C109.84 356.32 109.95 349.7 109.31 343.12C109.09 340.81 108.77 338.51 108.5 336.2C108.24 333.99 107.94 331.53 108.43 329.33C108.91 327.17 109.82 325.19 110.11 322.95C110.41 320.65 110.35 318.3 110.11 316C109.57 310.74 110.17 305.67 110.7 300.43C111.13 304.43 111.91 308.59 111.64 312.63C111.39 316.43 110.49 319.97 111.17 323.81C111.44 325.35 111.91 326.84 112.52 328.27C113.3 330.09 113.21 332.2 113.09 334.16C112.86 338.05 112.22 341.92 111.9 345.8C111.44 351.42 111.49 357.05 111.27 362.68C111.13 366.17 111.13 369.67 111.27 373.16C111.43 377.09 111.92 380.99 112.11 384.91C112.53 393.82 111.56 402.76 110.71 411.62H110.7ZM218.12 237.05C218.18 237.04 218.21 237.04 218.11 237.05C217.41 237.17 217.91 237.08 218.11 237.05C216.82 237.28 215.24 236.81 214.04 236.39C211.9 235.63 210.63 234.08 208.97 232.6C208.23 231.94 205.76 230.32 205.42 232.3C205.3 232.99 205.78 233.93 206.02 234.55C207.73 238.89 210.19 243.02 212.58 247.02C213.18 248.02 214.11 249.15 214.19 250.34C214.38 253.1 211.61 250.35 211.03 249.62C208.76 246.76 207.14 243.14 204.42 240.66C203.26 239.61 201.85 239.69 201.87 241.48C201.88 242.64 202.28 243.83 202.62 244.92C203.26 246.99 204.03 249.02 204.79 251.05C205.33 252.49 205.96 253.97 206.24 255.48C206.47 256.75 205.91 258.94 204.5 257.29C203.41 256.02 202.82 254.15 202.17 252.62C201.31 250.58 200.65 248.45 199.87 246.38C199.54 245.49 198.83 242.23 197.51 242.17C195.85 242.1 196.25 245.52 196.28 246.4C196.36 248.47 196.63 250.53 196.77 252.6C196.84 253.6 197.28 256.63 196.24 257.37C194.62 258.53 194.44 253.62 194.39 253.01C194.28 251.74 194.16 250.47 194.03 249.2C193.92 248.13 193.5 240.27 190.69 242.17C189.32 243.09 189.88 245.97 190 247.29C190.14 248.85 190.31 250.38 190.24 251.94C190.2 252.94 189.62 255.44 188.65 253.43C187.81 251.69 187.97 249.66 187.84 247.78C187.68 245.49 187.41 243.21 187.17 240.93C187.08 240.08 187.1 239.21 186.84 238.41C185.93 235.59 184.72 232.91 184.02 230.01C183.45 227.64 184.53 225.2 183.62 222.44C178.27 207.01 169.12 193.24 164.01 177.72C162.67 173.66 161.83 169.55 160.94 165.38C160.05 161.21 158.72 157.14 157.23 153.14C156.02 149.89 154.57 146.75 153.26 143.54C152.95 142.79 153.13 142.25 153.26 141.43C153.32 141.06 156.31 119.4 155.57 119.16C154.83 118.92 151.33 143.48 151.15 144.53C151.14 144.49 151.13 144.46 151.12 144.42C149.54 149.31 147.96 154.2 146.38 159.09C146.27 159.42 146.2 159.8 146.05 160.11C145.96 160.29 145.7 161.94 145.71 162.49C145.74 165.66 145.76 168.82 145.79 171.99C145.83 176.12 146.01 180.24 145.99 184.37C145.99 184.99 145.99 185.62 145.99 186.24C145.97 187.44 145.54 188.55 145.46 189.71C145.38 190.86 145.91 192.22 146.15 193.37C146.5 195.05 146.84 196.72 147.17 198.4C148.44 204.93 149.7 211.59 150.01 218.25C150.32 224.91 149.97 231.69 149.71 238.35C149.45 245 149.14 251.65 148.54 258.28C147.32 271.78 145.27 285.07 141.75 298.17C140.05 304.48 138.02 310.77 137.43 317.31C137.11 320.93 137.28 324.66 137.81 328.24C138.77 334.8 141.01 341.09 141.83 347.67C142.64 354.19 142.06 360.68 140.77 367.1C138.97 376.06 136.02 384.81 133.41 393.56C131.45 400.12 129.45 406.68 127.57 413.26C126.79 415.98 126.01 418.72 125.42 421.49C125.07 423.13 124.59 424.92 124.89 426.59C125.26 428.63 128.65 437.63 129.18 438.48C129.95 439.71 131.07 440.82 132.23 441.96C132.8 442.53 133.4 443.12 134.02 443.74C134.32 444.06 134.63 444.38 134.94 444.7C135.23 445.02 135.5 445.35 135.8 445.68C136.86 447.01 137.74 448.82 137.05 450.2C136.71 450.87 136 451.4 135.15 451.71C134.3 452.03 133.39 452.11 132.31 452.11C131.21 452.11 130.05 452.2 128.89 452.52C127.71 452.86 126.72 453.5 125.83 453.85C123.99 454.6 121.85 455.01 119.74 455.05C117.7 455.02 115.9 454.64 114.2 454.02C111.88 453.17 110.31 447.05 111.69 439.57C111.75 439.22 111.47 434.18 111.47 434.18C111.47 431.47 111.47 428.75 111.49 426.04C111.6 414.95 113.55 403.98 113.99 392.9C114.25 386.25 113.48 379.72 113.25 373.08C113.09 368.45 113.27 363.83 113.47 359.21C113.73 353.36 113.74 347.56 114.35 341.73C114.69 338.45 115.22 335.14 115.13 331.83C115.1 330.75 115.09 329.53 114.77 328.49C114.35 327.1 113.61 325.84 113.26 324.4C112.49 321.17 112.81 317.9 113.29 314.65C113.77 311.43 113.39 308.2 113.02 304.99C112.29 298.63 111.73 292.34 111.59 285.95C111.39 276.96 111.61 267.96 111.5 258.97C111.46 255.67 111.42 252.37 111.37 249.07L111.32 244.76C111.32 244.21 111.06 242.98 111.28 242.44C111.65 242.84 112.11 243.27 112.68 243.71C113.3 244.19 114.03 244.67 114.86 245.13C115.29 245.34 115.73 245.56 116.19 245.78C116.66 245.97 117.15 246.16 117.66 246.36C118.17 246.52 118.7 246.69 119.24 246.86C119.78 247 120.35 247.12 120.92 247.25C122.07 247.45 123.25 247.67 124.49 247.74C125.78 247.86 126.84 247.83 128.14 247.86C129.38 247.79 130.62 247.73 131.84 247.51C132.45 247.44 133.05 247.32 133.63 247.15C134.22 247 134.8 246.87 135.35 246.66C137.59 245.93 139.54 244.79 140.94 243.53C141.65 242.91 142.23 242.27 142.67 241.66C143.14 241.07 143.45 240.49 143.7 240.01C144.18 239.05 144.28 238.44 144.28 238.44C144.28 238.44 143.99 238.98 143.31 239.75C142.97 240.14 142.54 240.59 142.01 241.04C141.48 241.5 140.84 241.96 140.11 242.41C138.65 243.3 136.81 244.04 134.74 244.5C134.23 244.65 133.69 244.7 133.16 244.79C132.62 244.88 132.08 244.95 131.52 244.99C130.41 245.13 129.27 245.1 128.13 245.12C127.05 245.08 125.73 245.08 124.68 244.94C123.58 244.85 122.48 244.71 121.43 244.53C120.91 244.43 120.4 244.32 119.9 244.22C119.41 244.1 118.93 243.97 118.46 243.85C117.54 243.57 116.68 243.28 115.9 242.96C115.14 242.62 114.45 242.29 113.86 241.95C113.28 241.6 112.79 241.29 112.41 240.99C112.23 240.86 112.08 240.74 111.95 240.62C111.9 240.45 111.63 236.85 111.64 235.16C111.61 233.47 111.49 231.67 111.42 229.87C111.28 226.27 111.17 222.67 111.01 219.97C110.87 217.27 110.78 215.47 110.78 215.47H110.6C110.6 215.47 110.51 217.27 110.37 219.97C110.21 222.67 110.1 226.27 109.96 229.87C109.89 231.67 109.77 233.47 109.74 235.16C109.74 236.85 109.37 240.69 108.99 240.98C108.61 241.28 108.12 241.59 107.54 241.94C106.96 242.28 106.26 242.61 105.5 242.95C104.72 243.27 103.86 243.55 102.94 243.84C102.47 243.96 101.99 244.08 101.5 244.21C101 244.31 100.49 244.41 99.9701 244.52C98.9201 244.69 97.8201 244.84 96.7201 244.93C95.6701 245.07 94.3501 245.07 93.2701 245.11C92.1301 245.09 90.9901 245.12 89.8801 244.98C89.3201 244.95 88.7701 244.88 88.2401 244.78C87.7001 244.69 87.1601 244.64 86.6601 244.49C84.5901 244.04 82.7501 243.29 81.2901 242.4C80.5701 241.95 79.9201 241.49 79.3901 241.03C78.8501 240.58 78.4201 240.13 78.0901 239.74C77.4101 238.96 77.1201 238.43 77.1201 238.43C77.1201 238.43 77.2201 239.03 77.7001 240C77.9401 240.48 78.2601 241.06 78.7301 241.65C79.1701 242.26 79.7501 242.9 80.4601 243.52C81.8601 244.78 83.8101 245.92 86.0501 246.65C86.6001 246.87 87.1901 246.99 87.7701 247.14C88.3501 247.31 88.9601 247.42 89.5601 247.5C90.7801 247.72 92.0101 247.77 93.2601 247.85C94.5601 247.83 95.6301 247.85 96.9101 247.73C98.1601 247.66 99.3301 247.44 100.48 247.24C101.05 247.11 101.61 246.99 102.16 246.85C102.7 246.68 103.23 246.51 103.74 246.35C104.24 246.15 104.73 245.96 105.21 245.77C105.67 245.54 106.11 245.33 106.54 245.12C107.38 244.66 108.11 244.18 108.72 243.7C109.32 243.24 109.8 242.78 110.17 242.38C110.2 242.69 110.11 243.26 110.11 243.43C110.1 244.38 110.09 245.32 110.07 246.27C110.01 251.31 109.94 256.36 109.88 261.4C109.78 269.48 109.99 277.56 109.83 285.64C109.72 290.88 109.42 296.07 108.86 301.28C108.57 303.95 108.23 306.62 108.06 309.29C107.88 311.96 108.19 314.5 108.37 317.15C108.55 319.8 108.45 322.47 107.8 325.05C107.3 327.05 106.47 328.7 106.33 330.77C105.96 336.22 107.3 341.81 107.62 347.26C107.87 351.49 107.8 355.73 107.99 359.96C108.16 363.72 108.31 367.47 108.23 371.23C108.12 376.67 107.38 382.08 107.34 387.52C107.3 393.08 107.7 398.63 108.25 404.16C108.79 409.64 109.61 415.12 109.96 420.61C110.11 422.95 110.02 425.32 110 427.66C109.99 429.84 110 432.02 110 434.2C110 434.2 109.68 438.43 109.66 439.57C109.66 439.57 111.86 451.39 107.49 454.02C105.94 454.95 103.64 455.02 101.61 455.05C99.4901 455.01 97.4101 454.6 95.5701 453.85C94.6701 453.5 93.6901 452.85 92.5101 452.52C91.3501 452.2 90.1901 452.1 89.0901 452.11C88.0101 452.11 87.1001 452.03 86.2501 451.71C85.4001 451.4 84.7001 450.88 84.3501 450.2C83.6701 448.82 84.5401 447.01 85.6001 445.68C85.8901 445.35 86.1601 445.01 86.4601 444.7C86.7701 444.37 87.0801 444.05 87.3801 443.74C88.0001 443.13 88.5901 442.53 89.1701 441.96C90.3301 440.83 91.4501 439.72 92.2201 438.48C92.7301 437.65 96.0201 428.88 96.4701 426.84C96.7601 425.52 96.5201 424.12 96.2701 422.82C94.9401 415.75 92.5701 408.86 90.5201 401.97C89.1901 397.51 87.8501 393.06 86.5301 388.59C83.3901 377.95 79.5801 367.07 79.2201 355.88C79.0301 350.09 79.9401 344.48 81.3201 338.87C82.6201 333.61 83.8901 328.35 84.0701 322.91C84.3801 313.84 81.5601 305.32 79.2601 296.65C76.2801 285.38 74.3001 273.86 73.2201 262.26C72.1401 250.73 71.6001 239.18 71.4301 227.61C71.3401 221.8 71.3901 216.11 72.0801 210.33C72.7801 204.47 73.7401 198.63 74.8001 192.83C74.9701 191.92 75.4101 190.76 75.3501 189.84C75.2701 188.7 74.5601 187.3 74.1101 186.27C74.1601 186.42 74.2501 186.56 74.3201 186.71C74.3401 179.87 74.3501 173.03 74.3701 166.19C74.3701 164.7 74.3701 163.22 74.3801 161.73C74.3801 161.44 74.1801 160.53 74.0901 160.33C73.6001 159.17 73.3601 157.81 73.0101 156.6C72.4001 154.49 71.7901 152.37 71.1801 150.26C70.6601 148.48 70.0801 146.7 69.6301 144.9C69.3201 143.65 66.7301 119.06 65.8101 119.17C64.9001 119.28 67.7001 141.91 67.7801 142.8C67.8901 144.02 67.6801 144.51 67.1701 145.69C66.5301 147.17 65.9101 148.66 65.3101 150.15C63.7401 154.05 62.3501 158.03 61.2401 162.09C60.1301 166.13 59.5501 170.29 58.4101 174.33C56.0201 182.77 52.2801 190.81 48.3601 198.63C44.4601 206.4 40.6201 214.21 37.7601 222.45C37.0201 224.75 37.9501 225.58 37.8701 227.01C37.6401 230.69 36.1401 234.41 34.7901 237.81C34.4601 238.64 34.3901 239.17 34.3001 240.08C34.0501 242.65 33.7201 245.22 33.5401 247.8C33.4601 248.92 33.5001 250.05 33.3401 251.17C33.2301 251.9 33.0501 253.64 32.3301 254.09C30.9401 254.97 31.1201 250.99 31.1301 250.34C31.1701 248.18 31.7701 245.96 31.4401 243.8C31.2201 242.35 29.8101 241.19 28.7201 242.64C27.6501 244.07 27.6201 246.46 27.4401 248.15C27.2701 249.77 27.1201 251.4 26.9801 253.02C26.9401 253.52 26.3801 259.23 24.9401 257.09C24.4901 256.43 24.5601 255.28 24.5501 254.53C24.5301 253.22 24.6701 251.92 24.7901 250.62C24.9801 248.55 25.2401 246.42 25.1001 244.35C25.0501 243.67 25.0101 242.59 24.2601 242.27C22.7001 241.6 21.8001 245.61 21.5001 246.4C20.6501 248.69 19.9101 251.02 18.9301 253.26C18.5001 254.24 17.3501 258.07 15.9301 257.97C13.3201 257.78 17.8301 247.67 18.1801 246.65C18.5801 245.47 20.6301 241.01 18.8901 240.03C18.0001 239.53 17.0601 240.51 16.5101 241.09C14.9001 242.81 13.6401 244.9 12.3401 246.85C11.7701 247.7 11.1701 248.53 10.5501 249.34C10.0101 250.04 9.16006 251.41 8.20006 251.58C5.82006 252.01 8.29006 247.84 8.65006 247.24C9.76006 245.39 10.8201 243.5 11.8601 241.61C13.2601 239.04 14.8401 236.37 15.7001 233.56C16.0501 232.42 15.9701 231.12 14.3001 231.43C12.1001 231.84 10.7401 234.66 8.84006 235.72C7.41006 236.52 5.23006 237.3 3.55006 237.09C0.390059 236.69 4.77006 234.04 5.50006 233.41C9.86006 229.58 12.7101 224.31 17.1001 220.53C19.0301 218.87 21.2601 218.47 23.8101 218.52C24.0201 218.52 24.7001 217.86 24.6901 217.27C27.8301 211.18 29.6401 204.33 30.6601 197.59C31.3501 193.04 31.5901 188.49 32.5501 183.98C33.9801 177.24 36.3101 170.66 39.1901 164.4C39.7601 163.17 40.2701 161.88 41.1301 160.84C42.1701 159.59 42.9201 158.14 43.4501 156.61C43.8701 155.4 44.2001 154.46 44.2101 153.28C44.2201 151.51 44.2801 149.74 44.3701 147.98C44.7301 140.91 45.7401 133.86 46.9701 126.89C47.2801 125.15 47.6101 123.41 47.9901 121.69C48.2801 120.36 48.5001 119.51 48.3501 118.2C47.9401 114.76 47.7901 111.28 47.9101 107.82C48.0201 104.54 48.2401 101.28 49.5101 98.22C50.8201 95.08 52.5901 92.13 54.3901 89.25C56.1101 86.5 57.9101 84.56 60.9201 83.2C63.9301 81.84 67.2301 81.15 70.4801 80.7C78.1901 79.65 81.9201 80.34 83.5801 78.88C85.4601 77.48 87.4201 76.2 89.3801 74.92C90.5401 74.16 91.7101 73.42 92.8901 72.68C93.8201 72.09 95.2501 71.56 95.9801 70.76C96.3601 70.35 96.3301 70.06 96.3801 69.45C96.7301 65.53 97.0901 61.61 97.4401 57.69C98.2801 55.84 95.9901 55.59 94.6801 52.91C94.7901 53.13 95.0201 53.61 94.6801 52.91C94.6101 52.77 94.6301 52.81 94.6801 52.89C93.9301 51.32 93.4601 49.48 92.9401 47.82C91.9801 44.74 91.1301 41.62 90.4701 38.47C89.2301 32.55 88.9101 26.59 89.9601 20.61C90.8601 15.48 92.9201 10.38 97.1201 7.06998C100.96 4.04998 105.87 3.09998 110.65 2.97998C115.14 2.85998 120.01 3.96998 123.69 6.60998C128.12 9.78998 130.37 14.89 131.35 20.11C132.47 26.06 132.24 32.04 131.05 37.95C130.07 42.83 128.83 47.93 126.89 52.54C125.73 55.3 123.41 55.59 123.93 57.67C124.28 61.58 124.64 65.49 124.99 69.4C125.04 70 125.01 70.35 125.4 70.76C126.14 71.55 127.57 72.1 128.49 72.68C129.52 73.33 130.54 73.98 131.56 74.64C133.67 76 135.78 77.38 137.8 78.88C138.43 79.65 139.63 80.1 145.98 80.22C152.03 80.33 159.69 81.35 164.35 85.67C166.67 87.82 168.26 91.18 169.76 93.92C171.28 96.69 172.69 99.54 173.08 102.71C173.5 106.12 173.58 109.57 173.43 113.01C173.35 114.74 173.22 116.47 173.01 118.19C172.85 119.51 173.01 120.35 173.31 121.68C174.83 128.59 175.99 135.63 176.66 142.68C177 146.2 177.19 149.74 177.22 153.28C177.24 155.75 178.65 158.83 180.27 160.85C182.11 163.15 183.16 166.47 184.24 169.19C185.54 172.45 186.68 175.77 187.63 179.15C189.09 184.37 189.74 189.59 190.36 194.94C191.24 202.58 193.15 210.42 196.69 217.29C197.23 219.41 201.34 218.15 203.97 220.29C207.29 222.99 209.73 226.73 212.52 229.94C213.86 231.48 215.26 233.02 216.89 234.26C217.44 234.68 220.54 236.63 218.14 237.08L218.12 237.05Z" fill="#8999A5"/>
<path d="M73.5 83.5C75 87.5 76.2 99.7 69 116.5" stroke="#8999A5" stroke-width="2" stroke-linecap="round" stroke-dasharray="2 4"/>
<path d="M146.138 83.5C144.638 87.5 143.438 99.7 150.638 116.5" stroke="#8999A5" stroke-width="2" stroke-linecap="round" stroke-dasharray="2 4"/>
<path d="M76.5 196C90.5001 189 127.533 189.202 144.5 196" stroke="#8999A5" stroke-width="2" stroke-linecap="round" stroke-dasharray="2 4"/>
<path d="M93.1954 74.7315C108.456 79.18 111.956 79.68 126.5 74.5" stroke="#8999A5" stroke-width="2" stroke-linecap="round" stroke-dasharray="2 4"/>
<defs>
<clipPath id="clip0_212_44">
<rect width="221" height="457" fill="white"/>
</clipPath>
</defs>
</svg>
